<svg width="612" height="277" viewBox="0 0 612 277" fill="none" xmlns="http://www.w3.org/2000/svg">
<rect x="0.5" y="0.608398" width="610.959" height="275.17" rx="7.5" fill="white"/>
<rect x="0.5" y="0.608398" width="610.959" height="275.17" rx="7.5" stroke="#E6E7EA"/>
<path d="M33.3901 52.3774C30.8633 52.3774 28.8336 51.546 27.3012 49.8831C25.7688 48.2203 25.0026 46.0195 25.0026 43.2807C25.0026 40.5582 25.7851 38.3574 27.3501 36.6782C28.9315 34.9828 30.9856 34.1351 33.5124 34.1351C35.5013 34.1351 37.1967 34.6812 38.5987 35.7734C40.0171 36.8657 40.8892 38.3166 41.2153 40.1262H38.6477C38.3216 38.985 37.694 38.0884 36.7647 37.4363C35.8355 36.7679 34.7269 36.4337 33.4391 36.4337C31.6458 36.4337 30.2112 37.0532 29.1352 38.2922C28.0593 39.5311 27.5213 41.1858 27.5213 43.2562C27.5213 45.3266 28.0593 46.9813 29.1352 48.2203C30.2112 49.4593 31.6458 50.0788 33.4391 50.0788C34.7269 50.0788 35.8518 49.7609 36.8136 49.1251C37.7755 48.473 38.4194 47.6008 38.7455 46.5085H41.2886C40.9137 48.2692 40.0007 49.6875 38.5498 50.7635C37.0989 51.8394 35.379 52.3774 33.3901 52.3774ZM44.814 50.6412C43.6402 49.4674 43.0533 47.9595 43.0533 46.1173C43.0533 44.2751 43.6402 42.7672 44.814 41.5934C45.9877 40.4196 47.4794 39.8327 49.2889 39.8327C51.0822 39.8327 52.5657 40.4196 53.7395 41.5934C54.9133 42.7672 55.5001 44.2751 55.5001 46.1173C55.5001 47.9595 54.9133 49.4674 53.7395 50.6412C52.5657 51.815 51.0822 52.4018 49.2889 52.4018C47.4794 52.4018 45.9877 51.815 44.814 50.6412ZM46.4523 43.0606C45.735 43.8431 45.3764 44.862 45.3764 46.1173C45.3764 47.3726 45.735 48.3915 46.4523 49.174C47.1859 49.9565 48.1315 50.3477 49.2889 50.3477C50.4464 50.3477 51.3838 49.9565 52.1011 49.174C52.8347 48.3752 53.2015 47.3563 53.2015 46.1173C53.2015 44.8783 52.8347 43.8676 52.1011 43.0851C51.3838 42.2862 50.4464 41.8868 49.2889 41.8868C48.1315 41.8868 47.1859 42.2781 46.4523 43.0606ZM60.3433 52.1084H58.0446V40.1506H60.1232L60.3677 41.9846C60.7427 41.2999 61.2807 40.7701 61.9817 40.3952C62.699 40.0039 63.4815 39.8083 64.3292 39.8083C65.8616 39.8083 67.0109 40.2484 67.7771 41.1288C68.5433 41.9928 68.9265 43.2155 68.9265 44.7968V52.1084H66.6278V45.3103C66.6278 43.0443 65.666 41.9113 63.7423 41.9113C62.6827 41.9113 61.8512 42.2618 61.2481 42.9628C60.6449 43.6638 60.3433 44.6012 60.3433 45.7749V52.1084ZM75.2215 52.1084L70.4042 40.1506H72.8495L75.4661 46.8264C75.9225 48.0654 76.2404 49.0191 76.4197 49.6875C76.5665 49.1006 76.9007 48.1469 77.4223 46.8264L80.0878 40.1506H82.4842L77.4957 52.1084H75.2215ZM88.9235 52.4018C87.1629 52.4018 85.7282 51.8231 84.6197 50.6656C83.5274 49.5082 82.9813 48.0002 82.9813 46.1417C82.9813 44.267 83.5193 42.7427 84.5952 41.5689C85.6875 40.3952 87.0976 39.8083 88.8257 39.8083C90.5211 39.8083 91.8824 40.3463 92.9094 41.4222C93.9365 42.4982 94.45 43.9246 94.45 45.7016V46.5575L85.2066 46.5819C85.2881 47.8372 85.6467 48.8072 86.2825 49.4919C86.9346 50.1603 87.8312 50.4945 88.9724 50.4945C90.7983 50.4945 91.915 49.7935 92.3225 48.3915H94.4745C94.181 49.6793 93.5534 50.6738 92.5915 51.3748C91.6297 52.0595 90.407 52.4018 88.9235 52.4018ZM88.8257 41.7401C87.8312 41.7401 87.0243 42.0254 86.4048 42.596C85.7853 43.1666 85.4022 43.9817 85.2555 45.0413H92.1514C92.1514 44.0469 91.8498 43.2481 91.2466 42.6449C90.6434 42.0417 89.8364 41.7401 88.8257 41.7401ZM103.864 40.0528V42.1558H102.837C101.745 42.1558 100.881 42.4737 100.245 43.1095C99.6258 43.7453 99.3161 44.6338 99.3161 45.7749V52.1084H97.0174V40.1751H99.1693L99.3161 41.9846C99.5606 41.3489 99.9763 40.8435 100.563 40.4685C101.15 40.0936 101.843 39.9061 102.642 39.9061C103 39.9061 103.408 39.955 103.864 40.0528ZM105.042 48.636H107.243C107.243 49.2392 107.455 49.7201 107.879 50.0788C108.319 50.4211 108.922 50.5923 109.688 50.5923C110.487 50.5923 111.107 50.4374 111.547 50.1277C112.003 49.8179 112.232 49.3859 112.232 48.8316C112.232 48.4078 112.109 48.0736 111.865 47.829C111.62 47.5682 111.196 47.3644 110.593 47.2177L108.49 46.7286C106.403 46.2233 105.36 45.1147 105.36 43.4029C105.36 42.3107 105.776 41.4385 106.607 40.7864C107.439 40.1343 108.523 39.8083 109.86 39.8083C111.164 39.8083 112.207 40.1506 112.99 40.8353C113.788 41.5037 114.204 42.4085 114.237 43.5497H112.036C112.003 42.9465 111.791 42.4737 111.4 42.1314C111.009 41.7727 110.471 41.5934 109.786 41.5934C109.069 41.5934 108.515 41.7483 108.123 42.058C107.732 42.3514 107.536 42.7753 107.536 43.3296C107.536 44.1284 108.123 44.6745 109.297 44.968L111.4 45.4815C112.443 45.726 113.21 46.101 113.699 46.6064C114.188 47.1117 114.432 47.8046 114.432 48.6849C114.432 49.8098 113.992 50.7145 113.112 51.3992C112.232 52.0676 111.074 52.4018 109.639 52.4018C108.237 52.4018 107.121 52.0595 106.289 51.3748C105.458 50.6901 105.042 49.7772 105.042 48.636ZM119.696 38.4389H118.229C118.163 37.526 118.31 36.8005 118.669 36.2625C119.027 35.7245 119.549 35.4556 120.234 35.4556C120.755 35.4556 121.342 35.6838 121.994 36.1403C122.663 36.5967 123.144 36.825 123.437 36.825C123.991 36.825 124.269 36.3685 124.269 35.4556H125.76C125.825 36.4337 125.662 37.1755 125.271 37.6808C124.896 38.1862 124.35 38.4389 123.633 38.4389C123.062 38.4389 122.451 38.2107 121.799 37.7542C121.163 37.2977 120.731 37.0695 120.503 37.0695C119.965 37.0695 119.696 37.526 119.696 38.4389ZM120.478 52.4018C119.207 52.4018 118.204 52.0758 117.47 51.4237C116.753 50.7553 116.395 49.875 116.395 48.7827C116.395 47.6905 116.778 46.8183 117.544 46.1662C118.326 45.4978 119.427 45.1065 120.845 44.9924L124.611 44.699V44.3566C124.611 42.5471 123.674 41.6423 121.799 41.6423C120.837 41.6423 120.087 41.8461 119.549 42.2536C119.027 42.6612 118.767 43.2236 118.767 43.9409H116.761C116.761 42.7019 117.226 41.7075 118.155 40.9576C119.101 40.1914 120.348 39.8083 121.897 39.8083C123.429 39.8083 124.635 40.2158 125.516 41.031C126.412 41.8461 126.861 43.0361 126.861 44.6012V52.1084H124.904L124.66 50.1766C124.35 50.8613 123.812 51.4074 123.046 51.815C122.296 52.2062 121.44 52.4018 120.478 52.4018ZM121.139 50.6167C122.231 50.6167 123.087 50.2907 123.706 49.6386C124.326 48.9702 124.635 48.0736 124.635 46.9487V46.3129L121.579 46.5575C119.671 46.7368 118.718 47.4541 118.718 48.7094C118.718 49.3288 118.93 49.8016 119.353 50.1277C119.777 50.4537 120.372 50.6167 121.139 50.6167ZM131.022 50.6412C129.848 49.4674 129.261 47.9595 129.261 46.1173C129.261 44.2751 129.848 42.7672 131.022 41.5934C132.196 40.4196 133.688 39.8327 135.497 39.8327C137.29 39.8327 138.774 40.4196 139.948 41.5934C141.121 42.7672 141.708 44.2751 141.708 46.1173C141.708 47.9595 141.121 49.4674 139.948 50.6412C138.774 51.815 137.29 52.4018 135.497 52.4018C133.688 52.4018 132.196 51.815 131.022 50.6412ZM132.661 43.0606C131.943 43.8431 131.585 44.862 131.585 46.1173C131.585 47.3726 131.943 48.3915 132.661 49.174C133.394 49.9565 134.34 50.3477 135.497 50.3477C136.655 50.3477 137.592 49.9565 138.309 49.174C139.043 48.3752 139.41 47.3563 139.41 46.1173C139.41 44.8783 139.043 43.8676 138.309 43.0851C137.592 42.2862 136.655 41.8868 135.497 41.8868C134.34 41.8868 133.394 42.2781 132.661 43.0606ZM155.732 52.4018C154.02 52.4018 152.659 51.8313 151.648 50.6901C150.654 49.5326 150.157 48.0247 150.157 46.1662C150.157 44.2914 150.662 42.7672 151.673 41.5934C152.7 40.4033 154.086 39.8083 155.83 39.8083C156.759 39.8083 157.583 40.0039 158.3 40.3952C159.033 40.7864 159.604 41.3489 160.012 42.0825V34.1106H162.286V52.1084H160.232L160.036 49.932C159.645 50.7309 159.074 51.3422 158.324 51.766C157.574 52.1899 156.71 52.4018 155.732 52.4018ZM153.458 49.1495C154.126 49.932 155.039 50.3233 156.197 50.3233C157.354 50.3233 158.275 49.932 158.96 49.1495C159.645 48.367 159.987 47.3481 159.987 46.0928C159.987 44.8539 159.645 43.8431 158.96 43.0606C158.275 42.2781 157.354 41.8868 156.197 41.8868C155.039 41.8868 154.126 42.2781 153.458 43.0606C152.806 43.8268 152.48 44.8376 152.48 46.0928C152.48 47.3481 152.806 48.367 153.458 49.1495ZM170.762 52.4018C169.001 52.4018 167.566 51.8231 166.458 50.6656C165.366 49.5082 164.819 48.0002 164.819 46.1417C164.819 44.267 165.357 42.7427 166.433 41.5689C167.526 40.3952 168.936 39.8083 170.664 39.8083C172.359 39.8083 173.72 40.3463 174.748 41.4222C175.775 42.4982 176.288 43.9246 176.288 45.7016V46.5575L167.045 46.5819C167.126 47.8372 167.485 48.8072 168.121 49.4919C168.773 50.1603 169.669 50.4945 170.81 50.4945C172.636 50.4945 173.753 49.7935 174.161 48.3915H176.313C176.019 49.6793 175.391 50.6738 174.43 51.3748C173.468 52.0595 172.245 52.4018 170.762 52.4018ZM170.664 41.7401C169.669 41.7401 168.862 42.0254 168.243 42.596C167.623 43.1666 167.24 43.9817 167.094 45.0413H173.989C173.989 44.0469 173.688 43.2481 173.085 42.6449C172.481 42.0417 171.675 41.7401 170.664 41.7401ZM188.892 52.1084L184.075 40.1506H186.52L189.137 46.8264C189.593 48.0654 189.911 49.0191 190.09 49.6875C190.237 49.1006 190.571 48.1469 191.093 46.8264L193.758 40.1506H196.155L191.166 52.1084H188.892ZM202.594 52.4018C200.833 52.4018 199.399 51.8231 198.29 50.6656C197.198 49.5082 196.652 48.0002 196.652 46.1417C196.652 44.267 197.19 42.7427 198.266 41.5689C199.358 40.3952 200.768 39.8083 202.496 39.8083C204.192 39.8083 205.553 40.3463 206.58 41.4222C207.607 42.4982 208.121 43.9246 208.121 45.7016V46.5575L198.877 46.5819C198.959 47.8372 199.317 48.8072 199.953 49.4919C200.605 50.1603 201.502 50.4945 202.643 50.4945C204.469 50.4945 205.586 49.7935 205.993 48.3915H208.145C207.852 49.6793 207.224 50.6738 206.262 51.3748C205.3 52.0595 204.078 52.4018 202.594 52.4018ZM202.496 41.7401C201.502 41.7401 200.695 42.0254 200.075 42.596C199.456 43.1666 199.073 43.9817 198.926 45.0413H205.822C205.822 44.0469 205.52 43.2481 204.917 42.6449C204.314 42.0417 203.507 41.7401 202.496 41.7401ZM212.987 52.1084H210.688V40.1506H212.767L213.011 41.9846C213.386 41.2999 213.924 40.7701 214.625 40.3952C215.342 40.0039 216.125 39.8083 216.973 39.8083C218.505 39.8083 219.654 40.2484 220.421 41.1288C221.187 41.9928 221.57 43.2155 221.57 44.7968V52.1084H219.271V45.3103C219.271 43.0443 218.309 41.9113 216.386 41.9113C215.326 41.9113 214.495 42.2618 213.891 42.9628C213.288 43.6638 212.987 44.6012 212.987 45.7749V52.1084ZM229.547 52.4018C227.835 52.4018 226.474 51.8313 225.463 50.6901C224.468 49.5326 223.971 48.0247 223.971 46.1662C223.971 44.2914 224.476 42.7672 225.487 41.5934C226.514 40.4033 227.9 39.8083 229.644 39.8083C230.574 39.8083 231.397 40.0039 232.114 40.3952C232.848 40.7864 233.418 41.3489 233.826 42.0825V34.1106H236.1V52.1084H234.046L233.85 49.932C233.459 50.7309 232.888 51.3422 232.139 51.766C231.389 52.1899 230.525 52.4018 229.547 52.4018ZM227.272 49.1495C227.941 49.932 228.854 50.3233 230.011 50.3233C231.169 50.3233 232.09 49.932 232.774 49.1495C233.459 48.367 233.801 47.3481 233.801 46.0928C233.801 44.8539 233.459 43.8431 232.774 43.0606C232.09 42.2781 231.169 41.8868 230.011 41.8868C228.854 41.8868 227.941 42.2781 227.272 43.0606C226.62 43.8268 226.294 44.8376 226.294 46.0928C226.294 47.3481 226.62 48.367 227.272 49.1495ZM242.913 52.4018C241.641 52.4018 240.639 52.0758 239.905 51.4237C239.188 50.7553 238.829 49.875 238.829 48.7827C238.829 47.6905 239.212 46.8183 239.979 46.1662C240.761 45.4978 241.862 45.1065 243.28 44.9924L247.046 44.699V44.3566C247.046 42.5471 246.108 41.6423 244.234 41.6423C243.272 41.6423 242.522 41.8461 241.984 42.2536C241.462 42.6612 241.201 43.2236 241.201 43.9409H239.196C239.196 42.7019 239.661 41.7075 240.59 40.9576C241.535 40.1914 242.783 39.8083 244.331 39.8083C245.864 39.8083 247.07 40.2158 247.95 41.031C248.847 41.8461 249.295 43.0361 249.295 44.6012V52.1084H247.339L247.095 50.1766C246.785 50.8613 246.247 51.4074 245.481 51.815C244.731 52.2062 243.875 52.4018 242.913 52.4018ZM243.573 50.6167C244.666 50.6167 245.521 50.2907 246.141 49.6386C246.76 48.9702 247.07 48.0736 247.07 46.9487V46.3129L244.013 46.5575C242.106 46.7368 241.152 47.4541 241.152 48.7094C241.152 49.3288 241.364 49.8016 241.788 50.1277C242.212 50.4537 242.807 50.6167 243.573 50.6167ZM251.501 48.636H253.701C253.701 49.2392 253.913 49.7201 254.337 50.0788C254.777 50.4211 255.381 50.5923 256.147 50.5923C256.946 50.5923 257.565 50.4374 258.005 50.1277C258.462 49.8179 258.69 49.3859 258.69 48.8316C258.69 48.4078 258.568 48.0736 258.323 47.829C258.079 47.5682 257.655 47.3644 257.052 47.2177L254.949 46.7286C252.862 46.2233 251.818 45.1147 251.818 43.4029C251.818 42.3107 252.234 41.4385 253.066 40.7864C253.897 40.1343 254.981 39.8083 256.318 39.8083C257.622 39.8083 258.665 40.1506 259.448 40.8353C260.247 41.5037 260.663 42.4085 260.695 43.5497H258.494C258.462 42.9465 258.25 42.4737 257.859 42.1314C257.467 41.7727 256.929 41.5934 256.245 41.5934C255.527 41.5934 254.973 41.7483 254.582 42.058C254.19 42.3514 253.995 42.7753 253.995 43.3296C253.995 44.1284 254.582 44.6745 255.756 44.968L257.859 45.4815C258.902 45.726 259.668 46.101 260.157 46.6064C260.646 47.1117 260.891 47.8046 260.891 48.6849C260.891 49.8098 260.451 50.7145 259.57 51.3992C258.69 52.0676 257.532 52.4018 256.098 52.4018C254.696 52.4018 253.579 52.0595 252.748 51.3748C251.916 50.6901 251.501 49.7772 251.501 48.636Z" fill="#272727"/>
<path d="M112.528 103.277C110.949 103.277 109.681 102.757 108.723 101.718C107.765 100.678 107.286 99.3028 107.286 97.5911C107.286 95.8895 107.775 94.514 108.753 93.4645C109.742 92.4049 111.026 91.8751 112.605 91.8751C113.848 91.8751 114.908 92.2164 115.784 92.8991C116.67 93.5817 117.215 94.4885 117.419 95.6195H115.814C115.611 94.9063 115.218 94.3459 114.638 93.9383C114.057 93.5206 113.364 93.3117 112.559 93.3117C111.438 93.3117 110.542 93.6989 109.869 94.4733C109.197 95.2476 108.86 96.2818 108.86 97.5758C108.86 98.8698 109.197 99.904 109.869 100.678C110.542 101.453 111.438 101.84 112.559 101.84C113.364 101.84 114.067 101.641 114.668 101.244C115.269 100.836 115.672 100.291 115.876 99.6085H117.465C117.231 100.709 116.66 101.595 115.753 102.268C114.846 102.94 113.772 103.277 112.528 103.277ZM121.093 103.292C120.299 103.292 119.672 103.088 119.213 102.68C118.765 102.263 118.541 101.713 118.541 101.03C118.541 100.347 118.78 99.8021 119.259 99.3945C119.748 98.9768 120.436 98.7322 121.323 98.6609L123.676 98.4775V98.2635C123.676 97.1326 123.09 96.5671 121.919 96.5671C121.317 96.5671 120.849 96.6944 120.513 96.9492C120.186 97.2039 120.023 97.5554 120.023 98.0037H118.77C118.77 97.2294 119.061 96.6078 119.641 96.1391C120.232 95.6603 121.012 95.4208 121.98 95.4208C122.938 95.4208 123.691 95.6755 124.242 96.185C124.802 96.6944 125.082 97.4382 125.082 98.4164V103.108H123.86L123.707 101.901C123.513 102.329 123.177 102.67 122.698 102.925C122.229 103.17 121.694 103.292 121.093 103.292ZM121.506 102.176C122.189 102.176 122.724 101.972 123.111 101.565C123.498 101.147 123.691 100.587 123.691 99.8836V99.4862L121.781 99.6391C120.589 99.7511 119.993 100.199 119.993 100.984C119.993 101.371 120.125 101.667 120.39 101.87C120.655 102.074 121.027 102.176 121.506 102.176ZM131.351 95.5737V96.888H130.709C130.027 96.888 129.487 97.0867 129.089 97.4841C128.702 97.8815 128.509 98.4368 128.509 99.15V103.108H127.072V95.6501H128.417L128.509 96.7811C128.661 96.3837 128.921 96.0678 129.288 95.8335C129.655 95.5991 130.088 95.482 130.587 95.482C130.811 95.482 131.066 95.5125 131.351 95.5737ZM135.106 103.108H133.67V96.8422H132.202V95.6348H133.67V93.2964H135.106V95.6348H136.574V96.8422H135.106V103.108ZM139.47 94.565H138.553C138.512 93.9944 138.604 93.541 138.828 93.2047C139.052 92.8685 139.378 92.7004 139.806 92.7004C140.132 92.7004 140.499 92.843 140.906 93.1283C141.324 93.4136 141.625 93.5562 141.808 93.5562C142.155 93.5562 142.328 93.271 142.328 92.7004H143.26C143.301 93.3117 143.199 93.7753 142.954 94.0912C142.72 94.407 142.379 94.565 141.93 94.565C141.574 94.565 141.192 94.4223 140.784 94.137C140.387 93.8517 140.117 93.7091 139.974 93.7091C139.638 93.7091 139.47 93.9944 139.47 94.565ZM139.959 103.292C139.164 103.292 138.537 103.088 138.079 102.68C137.631 102.263 137.406 101.713 137.406 101.03C137.406 100.347 137.646 99.8021 138.125 99.3945C138.614 98.9768 139.302 98.7322 140.188 98.6609L142.542 98.4775V98.2635C142.542 97.1326 141.956 96.5671 140.784 96.5671C140.183 96.5671 139.714 96.6944 139.378 96.9492C139.052 97.2039 138.889 97.5554 138.889 98.0037H137.636C137.636 97.2294 137.926 96.6078 138.507 96.1391C139.098 95.6603 139.877 95.4208 140.845 95.4208C141.803 95.4208 142.557 95.6755 143.107 96.185C143.668 96.6944 143.948 97.4382 143.948 98.4164V103.108H142.725L142.572 101.901C142.379 102.329 142.042 102.67 141.564 102.925C141.095 103.17 140.56 103.292 139.959 103.292ZM140.371 102.176C141.054 102.176 141.589 101.972 141.976 101.565C142.363 101.147 142.557 100.587 142.557 99.8836V99.4862L140.647 99.6391C139.454 99.7511 138.858 100.199 138.858 100.984C138.858 101.371 138.991 101.667 139.256 101.87C139.521 102.074 139.893 102.176 140.371 102.176ZM146.549 102.191C145.815 101.458 145.448 100.515 145.448 99.364C145.448 98.2126 145.815 97.2701 146.549 96.5365C147.282 95.8029 148.215 95.4361 149.346 95.4361C150.466 95.4361 151.394 95.8029 152.127 96.5365C152.861 97.2701 153.228 98.2126 153.228 99.364C153.228 100.515 152.861 101.458 152.127 102.191C151.394 102.925 150.466 103.292 149.346 103.292C148.215 103.292 147.282 102.925 146.549 102.191ZM147.573 97.4535C147.124 97.9426 146.9 98.5794 146.9 99.364C146.9 100.149 147.124 100.785 147.573 101.274C148.031 101.763 148.622 102.008 149.346 102.008C150.069 102.008 150.655 101.763 151.103 101.274C151.562 100.775 151.791 100.138 151.791 99.364C151.791 98.5896 151.562 97.9579 151.103 97.4688C150.655 96.9695 150.069 96.7199 149.346 96.7199C148.622 96.7199 148.031 96.9645 147.573 97.4535Z" fill="#272727"/>
<path d="M74.4735 124.312C74.4735 122.716 75.3722 121.433 76.766 120.901C75.5923 120.369 74.9504 119.36 74.9504 118.058C74.9504 115.931 76.8394 114.463 79.6087 114.463C82.3598 114.463 84.2121 115.912 84.2121 118.095C84.2121 119.397 83.5519 120.406 82.3598 120.901C83.772 121.396 84.689 122.698 84.689 124.312C84.689 126.733 82.6899 128.328 79.5721 128.328C76.4726 128.328 74.4735 126.751 74.4735 124.312ZM77.0778 118.26C77.0778 119.378 78.0498 120.094 79.5721 120.094C81.076 120.094 82.0296 119.397 82.0296 118.278C82.0296 117.159 81.076 116.462 79.5721 116.462C78.0498 116.462 77.0778 117.159 77.0778 118.26ZM76.766 124.147C76.766 125.449 77.8481 126.256 79.5904 126.256C81.296 126.256 82.3781 125.449 82.3781 124.147C82.3781 122.845 81.296 122.038 79.5721 122.038C77.8481 122.038 76.766 122.845 76.766 124.147ZM88.0042 128.328C87.1973 128.328 86.5187 127.668 86.5187 126.88C86.5187 126.073 87.1973 125.412 88.0042 125.412C88.8112 125.412 89.4898 126.073 89.4898 126.88C89.4898 127.668 88.8112 128.328 88.0042 128.328ZM90.8081 121.433C90.8081 117.269 93.0456 114.445 96.4752 114.445C99.9048 114.445 102.161 117.269 102.161 121.433C102.161 125.577 100.033 128.347 96.4752 128.347C92.9172 128.347 90.8081 125.577 90.8081 121.433ZM93.119 121.433C93.119 124.532 94.3661 126.274 96.4752 126.274C98.6027 126.274 99.8498 124.532 99.8498 121.433C99.8498 118.26 98.6027 116.517 96.4752 116.517C94.3661 116.517 93.119 118.26 93.119 121.433ZM103.739 121.433C103.739 117.269 105.977 114.445 109.406 114.445C112.836 114.445 115.092 117.269 115.092 121.433C115.092 125.577 112.964 128.347 109.406 128.347C105.848 128.347 103.739 125.577 103.739 121.433ZM106.05 121.433C106.05 124.532 107.297 126.274 109.406 126.274C111.534 126.274 112.781 124.532 112.781 121.433C112.781 118.26 111.534 116.517 109.406 116.517C107.297 116.517 106.05 118.26 106.05 121.433ZM116.671 121.433C116.671 117.269 118.908 114.445 122.338 114.445C125.767 114.445 128.023 117.269 128.023 121.433C128.023 125.577 125.896 128.347 122.338 128.347C118.78 128.347 116.671 125.577 116.671 121.433ZM118.981 121.433C118.981 124.532 120.229 126.274 122.338 126.274C124.465 126.274 125.712 124.532 125.712 121.433C125.712 118.26 124.465 116.517 122.338 116.517C120.229 116.517 118.981 118.26 118.981 121.433ZM130.764 128.108H128.545L133.771 114.72H136.009L130.764 128.108Z" fill="#7C8183"/>
<path d="M136.876 114.702H146.504V116.866L141.644 128.108H139.205L144.157 116.866H136.876V114.702ZM147.377 128.328C146.57 128.328 145.891 127.668 145.891 126.88C145.891 126.073 146.57 125.412 147.377 125.412C148.184 125.412 148.862 126.073 148.862 126.88C148.862 127.668 148.184 128.328 147.377 128.328ZM152.196 118.645L155.093 114.702H157.771L154.561 118.975C154.892 118.883 155.24 118.828 155.57 118.828C158.34 118.828 160.21 120.772 160.21 123.487C160.21 126.348 158.083 128.347 155.222 128.347C152.324 128.347 150.16 126.219 150.16 123.468C150.16 121.854 150.692 120.681 152.196 118.645ZM152.562 123.487C152.562 125.119 153.644 126.256 155.222 126.256C156.744 126.256 157.844 125.119 157.844 123.487C157.844 121.873 156.762 120.754 155.222 120.754C153.626 120.754 152.562 121.873 152.562 123.487ZM161.661 121.433C161.661 117.269 163.899 114.445 167.328 114.445C170.758 114.445 173.014 117.269 173.014 121.433C173.014 125.577 170.886 128.347 167.328 128.347C163.77 128.347 161.661 125.577 161.661 121.433ZM163.972 121.433C163.972 124.532 165.219 126.274 167.328 126.274C169.456 126.274 170.703 124.532 170.703 121.433C170.703 118.26 169.456 116.517 167.328 116.517C165.219 116.517 163.972 118.26 163.972 121.433ZM174.592 121.433C174.592 117.269 176.83 114.445 180.26 114.445C183.689 114.445 185.945 117.269 185.945 121.433C185.945 125.577 183.818 128.347 180.26 128.347C176.702 128.347 174.592 125.577 174.592 121.433ZM176.903 121.433C176.903 124.532 178.15 126.274 180.26 126.274C182.387 126.274 183.634 124.532 183.634 121.433C183.634 118.26 182.387 116.517 180.26 116.517C178.15 116.517 176.903 118.26 176.903 121.433Z" fill="#27825C"/>
<path d="M299.819 99.1653H297.022V103.108H295.524V92.0585H299.819C300.899 92.0585 301.76 92.3845 302.402 93.0366C303.054 93.6785 303.38 94.5344 303.38 95.6042C303.38 96.6435 303.054 97.4994 302.402 98.1718C301.749 98.8341 300.889 99.1653 299.819 99.1653ZM299.559 93.4034H297.022V97.8203H299.498C300.231 97.8203 300.797 97.6216 301.194 97.2243C301.602 96.8269 301.806 96.2818 301.806 95.5889C301.806 94.8961 301.607 94.3612 301.209 93.9842C300.812 93.597 300.262 93.4034 299.559 93.4034ZM306.574 92.0585V103.108H305.076V92.0585H306.574ZM311.902 97.5911L308.127 92.0585H309.915L311.642 94.5191C312.1 95.1916 312.493 95.8386 312.819 96.4601L315.738 92.0585H317.465L313.766 97.5758L317.511 103.108H315.738L314.041 100.678C313.644 100.087 313.242 99.4404 312.834 98.7373L309.869 103.108H308.111L311.902 97.5911Z" fill="#272727"/>
<path d="M261.307 128.09L252.008 128.108V126.348L256.391 122.643C258.207 121.102 258.812 120.222 258.812 118.938C258.812 117.416 257.987 116.554 256.575 116.554C255.108 116.554 254.191 117.581 254.172 119.305H251.843C251.861 116.371 253.732 114.463 256.575 114.463C259.436 114.463 261.215 116.096 261.215 118.81C261.215 120.681 260.188 122.093 258.152 123.835L255.731 125.908H261.307V128.09ZM264.874 128.328C264.067 128.328 263.389 127.668 263.389 126.88C263.389 126.073 264.067 125.412 264.874 125.412C265.681 125.412 266.36 126.073 266.36 126.88C266.36 127.668 265.681 128.328 264.874 128.328ZM267.678 121.433C267.678 117.269 269.916 114.445 273.345 114.445C276.775 114.445 279.031 117.269 279.031 121.433C279.031 125.577 276.903 128.347 273.345 128.347C269.787 128.347 267.678 125.577 267.678 121.433ZM269.989 121.433C269.989 124.532 271.236 126.274 273.345 126.274C275.473 126.274 276.72 124.532 276.72 121.433C276.72 118.26 275.473 116.517 273.345 116.517C271.236 116.517 269.989 118.26 269.989 121.433ZM280.61 121.433C280.61 117.269 282.847 114.445 286.277 114.445C289.706 114.445 291.962 117.269 291.962 121.433C291.962 125.577 289.835 128.347 286.277 128.347C282.719 128.347 280.61 125.577 280.61 121.433ZM282.92 121.433C282.92 124.532 284.168 126.274 286.277 126.274C288.404 126.274 289.651 124.532 289.651 121.433C289.651 118.26 288.404 116.517 286.277 116.517C284.168 116.517 282.92 118.26 282.92 121.433ZM293.541 121.433C293.541 117.269 295.778 114.445 299.208 114.445C302.637 114.445 304.893 117.269 304.893 121.433C304.893 125.577 302.766 128.347 299.208 128.347C295.65 128.347 293.541 125.577 293.541 121.433ZM295.852 121.433C295.852 124.532 297.099 126.274 299.208 126.274C301.335 126.274 302.582 124.532 302.582 121.433C302.582 118.26 301.335 116.517 299.208 116.517C297.099 116.517 295.852 118.26 295.852 121.433ZM307.634 128.108H305.415L310.642 114.72H312.879L307.634 128.108Z" fill="#7C8183"/>
<path d="M316.71 116.811H313.776V114.702H318.966V128.108H316.71V116.811ZM323.119 128.328C322.312 128.328 321.633 127.668 321.633 126.88C321.633 126.073 322.312 125.412 323.119 125.412C323.926 125.412 324.604 126.073 324.604 126.88C324.604 127.668 323.926 128.328 323.119 128.328ZM334.042 124.165L331.144 128.108H328.466L331.676 123.835C331.346 123.927 330.997 123.982 330.667 123.982C327.898 123.982 326.027 122.038 326.027 119.323C326.027 116.462 328.154 114.463 331.016 114.463C333.913 114.463 336.077 116.591 336.077 119.342C336.077 120.956 335.546 122.13 334.042 124.165ZM333.675 119.323C333.675 117.691 332.593 116.554 331.016 116.554C329.475 116.554 328.393 117.691 328.393 119.323C328.393 120.937 329.475 122.056 331.016 122.056C332.611 122.056 333.675 120.937 333.675 119.323ZM339.185 118.645L342.083 114.702H344.76L341.551 118.975C341.881 118.883 342.23 118.828 342.56 118.828C345.329 118.828 347.2 120.772 347.2 123.487C347.2 126.348 345.072 128.347 342.211 128.347C339.313 128.347 337.149 126.219 337.149 123.468C337.149 121.854 337.681 120.681 339.185 118.645ZM339.552 123.487C339.552 125.119 340.634 126.256 342.211 126.256C343.733 126.256 344.834 125.119 344.834 123.487C344.834 121.873 343.752 120.754 342.211 120.754C340.616 120.754 339.552 121.873 339.552 123.487ZM348.651 121.433C348.651 117.269 350.888 114.445 354.318 114.445C357.747 114.445 360.003 117.269 360.003 121.433C360.003 125.577 357.876 128.347 354.318 128.347C350.76 128.347 348.651 125.577 348.651 121.433ZM350.962 121.433C350.962 124.532 352.209 126.274 354.318 126.274C356.445 126.274 357.692 124.532 357.692 121.433C357.692 118.26 356.445 116.517 354.318 116.517C352.209 116.517 350.962 118.26 350.962 121.433Z" fill="#27825C"/>
<path d="M460.97 103.108V92.0585H465.189C466.269 92.0585 467.114 92.3183 467.726 92.8379C468.347 93.3576 468.658 94.0708 468.658 94.9776C468.658 96.241 468.108 97.102 467.007 97.5605C468.24 97.9579 468.857 98.8239 468.857 100.159C468.857 101.076 468.541 101.799 467.909 102.329C467.288 102.849 466.432 103.108 465.342 103.108H460.97ZM465.097 93.3881H462.468V96.9339H465.189C465.81 96.9339 466.289 96.776 466.625 96.4601C466.962 96.1341 467.13 95.6857 467.13 95.1152C467.13 94.565 466.951 94.1421 466.595 93.8466C466.248 93.541 465.749 93.3881 465.097 93.3881ZM465.311 98.233H462.468V101.779H465.311C465.953 101.779 466.447 101.621 466.793 101.305C467.14 100.989 467.313 100.546 467.313 99.9753C467.313 99.4251 467.135 98.9972 466.778 98.6915C466.432 98.3858 465.943 98.233 465.311 98.233ZM471.098 102.191C470.365 101.458 469.998 100.515 469.998 99.364C469.998 98.2126 470.365 97.2701 471.098 96.5365C471.832 95.8029 472.764 95.4361 473.895 95.4361C475.016 95.4361 475.943 95.8029 476.677 96.5365C477.41 97.2701 477.777 98.2126 477.777 99.364C477.777 100.515 477.41 101.458 476.677 102.191C475.943 102.925 475.016 103.292 473.895 103.292C472.764 103.292 471.832 102.925 471.098 102.191ZM472.122 97.4535C471.674 97.9426 471.45 98.5794 471.45 99.364C471.45 100.149 471.674 100.785 472.122 101.274C472.581 101.763 473.172 102.008 473.895 102.008C474.619 102.008 475.205 101.763 475.653 101.274C476.111 100.775 476.341 100.138 476.341 99.364C476.341 98.5896 476.111 97.9579 475.653 97.4688C475.205 96.9695 474.619 96.7199 473.895 96.7199C473.172 96.7199 472.581 96.9645 472.122 97.4535ZM480.835 103.108H479.398V91.8598H480.835V103.108ZM486.174 103.292C485.074 103.292 484.177 102.93 483.485 102.207C482.802 101.483 482.461 100.541 482.461 99.3792C482.461 98.2075 482.797 97.2548 483.469 96.5212C484.152 95.7876 485.033 95.4208 486.113 95.4208C487.173 95.4208 488.024 95.7571 488.666 96.4295C489.307 97.102 489.628 97.9935 489.628 99.1041V99.6391L483.851 99.6543C483.902 100.439 484.126 101.045 484.524 101.473C484.931 101.891 485.492 102.1 486.205 102.1C487.346 102.1 488.044 101.662 488.299 100.785H489.644C489.46 101.59 489.068 102.212 488.467 102.65C487.866 103.078 487.102 103.292 486.174 103.292ZM486.113 96.6282C485.492 96.6282 484.987 96.8065 484.6 97.1631C484.213 97.5198 483.974 98.0292 483.882 98.6915H488.192C488.192 98.07 488.003 97.5707 487.626 97.1937C487.249 96.8167 486.745 96.6282 486.113 96.6282ZM493.268 103.108H491.831V96.8422H490.364V95.6348H491.831V93.2964H493.268V95.6348H494.735V96.8422H493.268V103.108ZM496.561 102.191C495.827 101.458 495.46 100.515 495.46 99.364C495.46 98.2126 495.827 97.2701 496.561 96.5365C497.294 95.8029 498.227 95.4361 499.358 95.4361C500.478 95.4361 501.406 95.8029 502.139 96.5365C502.873 97.2701 503.24 98.2126 503.24 99.364C503.24 100.515 502.873 101.458 502.139 102.191C501.406 102.925 500.478 103.292 499.358 103.292C498.227 103.292 497.294 102.925 496.561 102.191ZM497.585 97.4535C497.136 97.9426 496.912 98.5794 496.912 99.364C496.912 100.149 497.136 100.785 497.585 101.274C498.043 101.763 498.634 102.008 499.358 102.008C500.081 102.008 500.667 101.763 501.115 101.274C501.574 100.775 501.803 100.138 501.803 99.364C501.803 98.5896 501.574 97.9579 501.115 97.4688C500.667 96.9695 500.081 96.7199 499.358 96.7199C498.634 96.7199 498.043 96.9645 497.585 97.4535Z" fill="#272727"/>
<path d="M455.35 125.559H453.718V128.108H451.499V125.559H444.694V123.505L450.765 114.702H453.718V123.505H455.35V125.559ZM447.189 123.505H451.499V117.233L447.189 123.505ZM456.808 124.312C456.808 122.716 457.706 121.433 459.1 120.901C457.926 120.369 457.285 119.36 457.285 118.058C457.285 115.931 459.174 114.463 461.943 114.463C464.694 114.463 466.546 115.912 466.546 118.095C466.546 119.397 465.886 120.406 464.694 120.901C466.106 121.396 467.023 122.698 467.023 124.312C467.023 126.733 465.024 128.328 461.906 128.328C458.807 128.328 456.808 126.751 456.808 124.312ZM459.412 118.26C459.412 119.378 460.384 120.094 461.906 120.094C463.41 120.094 464.364 119.397 464.364 118.278C464.364 117.159 463.41 116.462 461.906 116.462C460.384 116.462 459.412 117.159 459.412 118.26ZM459.1 124.147C459.1 125.449 460.182 126.256 461.925 126.256C463.63 126.256 464.712 125.449 464.712 124.147C464.712 122.845 463.63 122.038 461.906 122.038C460.182 122.038 459.1 122.845 459.1 124.147ZM468.575 121.433C468.575 117.269 470.813 114.445 474.242 114.445C477.672 114.445 479.928 117.269 479.928 121.433C479.928 125.577 477.8 128.347 474.242 128.347C470.684 128.347 468.575 125.577 468.575 121.433ZM470.886 121.433C470.886 124.532 472.133 126.274 474.242 126.274C476.37 126.274 477.617 124.532 477.617 121.433C477.617 118.26 476.37 116.517 474.242 116.517C472.133 116.517 470.886 118.26 470.886 121.433ZM482.668 128.108H480.449L485.676 114.72H487.914L482.668 128.108Z" fill="#7C8183"/>
<path d="M497.529 125.559H495.896V128.108H493.677V125.559H486.873V123.505L492.944 114.702H495.896V123.505H497.529V125.559ZM489.367 123.505H493.677V117.233L489.367 123.505ZM503.038 121.469H501.406V119.947L504.854 116.774H499.278V114.702H507.788V116.572L504.523 119.58C506.578 119.984 508.173 121.488 508.173 123.853C508.173 126.605 506.027 128.347 503.313 128.347C500.69 128.347 498.655 126.733 498.655 123.835H500.965C500.965 125.376 501.919 126.256 503.35 126.256C504.817 126.256 505.789 125.302 505.789 123.817C505.789 122.46 504.909 121.469 503.038 121.469ZM518.639 128.09L509.34 128.108V126.348L513.724 122.643C515.539 121.102 516.144 120.222 516.144 118.938C516.144 117.416 515.319 116.554 513.907 116.554C512.44 116.554 511.523 117.581 511.504 119.305H509.175C509.194 116.371 511.064 114.463 513.907 114.463C516.768 114.463 518.547 116.096 518.547 118.81C518.547 120.681 517.52 122.093 515.484 123.835L513.063 125.908H518.639V128.09Z" fill="#27825C"/>
<g clip-path="url(#clip0_3581_1763)">
<path d="M152.402 195.446C152.402 197.094 151.234 198.278 149.602 198.278C147.97 198.278 146.786 197.094 146.786 195.446C146.786 193.798 147.97 192.598 149.602 192.598C151.234 192.598 152.402 193.798 152.402 195.446ZM158.21 192.822L149.506 204.278H148.354L157.042 192.822H158.21ZM151.442 195.446C151.442 194.31 150.69 193.526 149.602 193.526C148.498 193.526 147.746 194.31 147.746 195.446C147.746 196.566 148.514 197.366 149.602 197.366C150.674 197.366 151.442 196.566 151.442 195.446ZM159.794 201.654C159.794 203.302 158.626 204.486 156.994 204.486C155.362 204.486 154.178 203.302 154.178 201.654C154.178 200.006 155.362 198.806 156.994 198.806C158.626 198.806 159.794 200.006 159.794 201.654ZM158.834 201.654C158.834 200.518 158.082 199.734 156.994 199.734C155.89 199.734 155.138 200.518 155.138 201.654C155.138 202.774 155.906 203.558 156.994 203.558C158.066 203.558 158.834 202.774 158.834 201.654Z" fill="#272727"/>
<g clip-path="url(#clip1_3581_1763)">
<path d="M120.09 -89.909H116.265V-91.6119H121.897V-72.8535H120.09V-89.909ZM122.931 -37.8535H110.565V-39.3468L116.565 -44.5866C120.023 -47.5995 120.914 -48.9094 120.914 -51.1363C120.914 -53.6776 119.394 -55.2233 116.905 -55.2233C114.312 -55.2233 112.609 -53.337 112.53 -50.429H110.644C110.749 -54.3588 113.238 -56.9525 116.932 -56.9525C120.469 -56.9525 122.826 -54.6732 122.826 -51.2411C122.826 -48.5164 121.595 -46.7087 117.849 -43.4339L113.473 -39.6088H122.931V-37.8535ZM115.836 -12.9139H114.342V-14.2238L120.132 -19.9352H111.146V-21.6119H122.516V-20.0924L116.91 -14.512C120.42 -14.3286 122.935 -12.1017 122.935 -8.69586C122.935 -4.97562 120.211 -2.53913 116.412 -2.53913C112.718 -2.53913 110.229 -4.81843 110.229 -8.56486H112.089C112.089 -5.86638 113.766 -4.24205 116.412 -4.24205C119.215 -4.24205 121.023 -6.02357 121.023 -8.74825C121.023 -11.3157 119.189 -12.9139 115.836 -12.9139ZM122.606 28.1643H120.405V32.1465H118.571V28.1643H108.72V26.4875L117.89 13.3881H120.405V26.4875H122.606V28.1643ZM110.764 26.4875H118.571V15.3268L110.764 26.4875ZM116.421 67.4609C112.649 67.4609 110.238 65.103 110.238 61.4089H112.125C112.125 64.1074 113.775 65.7317 116.447 65.7317C119.277 65.7317 121.111 63.8454 121.111 61.0684C121.111 58.4485 119.408 56.3788 116.447 56.3788C114.718 56.3788 113.146 57.1647 112.125 58.2913L110.631 57.8197L112.884 48.3881H121.949V50.1172H114.247L112.832 56.012C113.88 55.1736 115.242 54.702 116.709 54.702C120.613 54.702 123.023 57.5053 123.023 61.016C123.023 64.7886 120.351 67.4609 116.421 67.4609ZM111.875 89.702L116.564 83.3881H118.765L113.84 89.9116C114.731 89.4662 115.543 89.2829 116.407 89.2829C120.311 89.2829 122.905 92.1385 122.905 95.8064C122.905 99.6576 119.997 102.461 116.25 102.461C112.477 102.461 109.517 99.5528 109.517 95.8064C109.517 93.6319 110.12 92.1123 111.875 89.702ZM111.429 95.8326C111.429 98.6882 113.394 100.758 116.25 100.758C119.027 100.758 121.018 98.6882 121.018 95.8326C121.018 92.9769 119.027 90.9334 116.25 90.9334C113.394 90.9334 111.429 92.9769 111.429 95.8326ZM111.132 118.388H123.891V120.117L116.502 137.146H114.564L121.978 120.117H111.132V118.388ZM109.392 167.038C109.392 164.732 110.781 162.898 113.008 162.139C111.121 161.379 110.047 159.833 110.047 157.894C110.047 155.012 112.51 153.048 116.099 153.048C119.662 153.048 122.046 155.012 122.046 157.921C122.046 159.885 120.998 161.431 119.138 162.139C121.313 162.82 122.754 164.706 122.754 167.064C122.754 170.26 120.055 172.461 116.073 172.461C112.091 172.461 109.392 170.26 109.392 167.038ZM111.829 157.947C111.829 160.016 113.505 161.405 116.073 161.405C118.614 161.405 120.265 160.069 120.265 157.999C120.265 155.982 118.614 154.724 116.073 154.724C113.505 154.724 111.829 155.982 111.829 157.947ZM111.252 166.881C111.252 169.212 113.191 170.758 116.099 170.758C118.955 170.758 120.893 169.212 120.893 166.881C120.893 164.575 119.007 163.082 116.047 163.082C113.139 163.082 111.252 164.575 111.252 166.881ZM120.547 200.806L115.857 207.146H113.656L118.582 200.597C117.717 201.068 116.905 201.226 116.014 201.226C112.111 201.226 109.517 198.37 109.517 194.702C109.517 190.877 112.425 188.048 116.171 188.048C119.944 188.048 122.905 190.956 122.905 194.728C122.905 196.903 122.328 198.422 120.547 200.806ZM121.018 194.702C121.018 191.846 119.027 189.777 116.171 189.777C113.394 189.777 111.403 191.846 111.403 194.702C111.403 197.532 113.394 199.575 116.171 199.575C119.027 199.575 121.018 197.532 121.018 194.702Z" fill="#171717"/>
<path d="M124.382 -606.97C124.382 -612.786 127.238 -616.716 131.901 -616.716C136.538 -616.716 139.394 -612.786 139.394 -606.97C139.394 -601.128 136.591 -597.25 131.901 -597.25C127.185 -597.25 124.382 -601.128 124.382 -606.97ZM126.242 -606.97C126.242 -602.097 128.312 -598.953 131.901 -598.953C135.49 -598.953 137.56 -602.097 137.56 -606.97C137.56 -611.869 135.49 -614.987 131.901 -614.987C128.312 -614.987 126.242 -611.869 126.242 -606.97ZM132.25 -579.646H128.425V-581.349H134.058V-562.591H132.25V-579.646ZM138.072 -527.591H125.706V-529.084L131.706 -534.324C135.164 -537.337 136.055 -538.647 136.055 -540.874C136.055 -543.415 134.535 -544.961 132.046 -544.961C129.453 -544.961 127.75 -543.074 127.671 -540.166H125.785C125.89 -544.096 128.378 -546.69 132.072 -546.69C135.609 -546.69 137.967 -544.41 137.967 -540.978C137.967 -538.254 136.736 -536.446 132.989 -533.171L128.614 -529.346H138.072V-527.591ZM131.066 -502.651H129.573V-503.961L135.363 -509.672H126.376V-511.349H137.747V-509.83L132.14 -504.249C135.651 -504.066 138.166 -501.839 138.166 -498.433C138.166 -494.713 135.441 -492.276 131.642 -492.276C127.948 -492.276 125.459 -494.556 125.459 -498.302H127.32C127.32 -495.604 128.996 -493.979 131.642 -493.979C134.446 -493.979 136.253 -495.761 136.253 -498.486C136.253 -501.053 134.419 -502.651 131.066 -502.651ZM138.603 -461.573H136.403V-457.591H134.569V-461.573H124.718V-463.25L133.888 -476.349H136.403V-463.25H138.603V-461.573ZM126.762 -463.25H134.569V-474.41L126.762 -463.25ZM131.843 -422.276C128.071 -422.276 125.66 -424.634 125.66 -428.328H127.547C127.547 -425.63 129.197 -424.006 131.87 -424.006C134.699 -424.006 136.533 -425.892 136.533 -428.669C136.533 -431.289 134.83 -433.359 131.87 -433.359C130.14 -433.359 128.569 -432.573 127.547 -431.446L126.053 -431.918L128.307 -441.349H137.371V-439.62H129.669L128.254 -433.725C129.302 -434.564 130.664 -435.035 132.132 -435.035C136.035 -435.035 138.446 -432.232 138.446 -428.721C138.446 -424.949 135.773 -422.276 131.843 -422.276ZM125.518 -406.349H138.277V-404.62L130.888 -387.591H128.95L136.364 -404.62H125.518V-406.349ZM125.198 -357.7C125.198 -360.005 126.587 -361.839 128.814 -362.599C126.927 -363.359 125.853 -364.904 125.853 -366.843C125.853 -369.725 128.316 -371.69 131.905 -371.69C135.468 -371.69 137.852 -369.725 137.852 -366.817C137.852 -364.852 136.804 -363.306 134.944 -362.599C137.119 -361.918 138.56 -360.031 138.56 -357.673C138.56 -354.477 135.861 -352.276 131.879 -352.276C127.897 -352.276 125.198 -354.477 125.198 -357.7ZM127.635 -366.791C127.635 -364.721 129.311 -363.332 131.879 -363.332C134.42 -363.332 136.071 -364.668 136.071 -366.738C136.071 -368.756 134.42 -370.013 131.879 -370.013C129.311 -370.013 127.635 -368.756 127.635 -366.791ZM127.058 -357.857C127.058 -355.525 128.997 -353.979 131.905 -353.979C134.761 -353.979 136.699 -355.525 136.699 -357.857C136.699 -360.162 134.813 -361.656 131.853 -361.656C128.945 -361.656 127.058 -360.162 127.058 -357.857ZM136.225 -323.931L131.535 -317.591H129.334L134.26 -324.141C133.395 -323.669 132.583 -323.512 131.692 -323.512C127.789 -323.512 125.195 -326.367 125.195 -330.035C125.195 -333.86 128.103 -336.69 131.85 -336.69C135.622 -336.69 138.583 -333.782 138.583 -330.009C138.583 -327.835 138.006 -326.315 136.225 -323.931ZM136.696 -330.035C136.696 -332.891 134.705 -334.961 131.85 -334.961C129.072 -334.961 127.081 -332.891 127.081 -330.035C127.081 -327.206 129.072 -325.162 131.85 -325.162C134.705 -325.162 136.696 -327.206 136.696 -330.035ZM124.382 -291.97C124.382 -297.786 127.238 -301.716 131.901 -301.716C136.538 -301.716 139.394 -297.786 139.394 -291.97C139.394 -286.128 136.591 -282.25 131.901 -282.25C127.185 -282.25 124.382 -286.128 124.382 -291.97ZM126.242 -291.97C126.242 -287.097 128.312 -283.953 131.901 -283.953C135.49 -283.953 137.56 -287.097 137.56 -291.97C137.56 -296.869 135.49 -299.987 131.901 -299.987C128.312 -299.987 126.242 -296.869 126.242 -291.97ZM132.25 -264.646H128.425V-266.349H134.058V-247.591H132.25V-264.646ZM138.072 -212.591H125.706V-214.084L131.706 -219.324C135.164 -222.337 136.055 -223.647 136.055 -225.874C136.055 -228.415 134.535 -229.961 132.046 -229.961C129.453 -229.961 127.75 -228.074 127.671 -225.166H125.785C125.89 -229.096 128.378 -231.69 132.072 -231.69C135.609 -231.69 137.967 -229.41 137.967 -225.978C137.967 -223.254 136.736 -221.446 132.989 -218.171L128.614 -214.346H138.072V-212.591ZM131.066 -187.651H129.573V-188.961L135.363 -194.672H126.376V-196.349H137.747V-194.83L132.14 -189.249C135.651 -189.066 138.166 -186.839 138.166 -183.433C138.166 -179.713 135.441 -177.276 131.642 -177.276C127.948 -177.276 125.459 -179.556 125.459 -183.302H127.32C127.32 -180.604 128.996 -178.979 131.642 -178.979C134.446 -178.979 136.253 -180.761 136.253 -183.486C136.253 -186.053 134.419 -187.651 131.066 -187.651ZM138.603 -146.573H136.403V-142.591H134.569V-146.573H124.718V-148.25L133.888 -161.349H136.403V-148.25H138.603V-146.573ZM126.762 -148.25H134.569V-159.41L126.762 -148.25ZM131.843 -107.276C128.071 -107.276 125.66 -109.634 125.66 -113.328H127.547C127.547 -110.63 129.197 -109.006 131.87 -109.006C134.699 -109.006 136.533 -110.892 136.533 -113.669C136.533 -116.289 134.83 -118.359 131.87 -118.359C130.14 -118.359 128.569 -117.573 127.547 -116.446L126.053 -116.918L128.307 -126.349H137.371V-124.62H129.669L128.254 -118.725C129.302 -119.564 130.664 -120.035 132.132 -120.035C136.035 -120.035 138.446 -117.232 138.446 -113.721C138.446 -109.949 135.773 -107.276 131.843 -107.276ZM125.518 -91.3492H138.277V-89.6201L130.888 -72.5908H128.95L136.364 -89.6201H125.518V-91.3492ZM125.198 -42.6996C125.198 -45.0051 126.587 -46.839 128.814 -47.5988C126.927 -48.3585 125.853 -49.9043 125.853 -51.843C125.853 -54.7249 128.316 -56.6898 131.905 -56.6898C135.468 -56.6898 137.852 -54.7249 137.852 -51.8168C137.852 -49.8519 136.804 -48.3061 134.944 -47.5988C137.119 -46.9176 138.56 -45.0313 138.56 -42.6734C138.56 -39.4771 135.861 -37.2764 131.879 -37.2764C127.897 -37.2764 125.198 -39.4771 125.198 -42.6996ZM127.635 -51.7906C127.635 -49.7209 129.311 -48.3323 131.879 -48.3323C134.42 -48.3323 136.071 -49.6685 136.071 -51.7382C136.071 -53.7555 134.42 -55.013 131.879 -55.013C129.311 -55.013 127.635 -53.7555 127.635 -51.7906ZM127.058 -42.8568C127.058 -40.5251 128.997 -38.9794 131.905 -38.9794C134.761 -38.9794 136.699 -40.5251 136.699 -42.8568C136.699 -45.1623 134.813 -46.6556 131.853 -46.6556C128.945 -46.6556 127.058 -45.1623 127.058 -42.8568ZM136.225 -8.93094L131.535 -2.59082H129.334L134.26 -9.14053C133.395 -8.66895 132.583 -8.51176 131.692 -8.51176C127.789 -8.51176 125.195 -11.3674 125.195 -15.0353C125.195 -18.8603 128.103 -21.6898 131.85 -21.6898C135.622 -21.6898 138.583 -18.7817 138.583 -15.0091C138.583 -12.8346 138.006 -11.315 136.225 -8.93094ZM136.696 -15.0353C136.696 -17.8909 134.705 -19.9606 131.85 -19.9606C129.072 -19.9606 127.081 -17.8909 127.081 -15.0353C127.081 -12.2058 129.072 -10.1623 131.85 -10.1623C134.705 -10.1623 136.696 -12.2058 136.696 -15.0353ZM124.382 23.03C124.382 17.2139 127.238 13.284 131.901 13.284C136.538 13.284 139.394 17.2139 139.394 23.03C139.394 28.8723 136.591 32.7498 131.901 32.7498C127.185 32.7498 124.382 28.8723 124.382 23.03ZM126.242 23.03C126.242 27.903 128.312 31.0468 131.901 31.0468C135.49 31.0468 137.56 27.903 137.56 23.03C137.56 18.1308 135.49 15.0132 131.901 15.0132C128.312 15.0132 126.242 18.1308 126.242 23.03ZM132.25 50.3537H128.425V48.6508H134.058V67.4092H132.25V50.3537ZM138.072 102.409H125.706V100.916L131.706 95.6761C135.164 92.6632 136.055 91.3533 136.055 89.1264C136.055 86.5851 134.535 85.0394 132.046 85.0394C129.453 85.0394 127.75 86.9257 127.671 89.8337H125.785C125.89 85.9039 128.378 83.3102 132.072 83.3102C135.609 83.3102 137.967 85.5895 137.967 89.0216C137.967 91.7463 136.736 93.554 132.989 96.8288L128.614 100.654H138.072V102.409ZM131.066 127.349H129.573V126.039L135.363 120.328H126.376V118.651H137.747V120.17L132.14 125.751C135.651 125.934 138.166 128.161 138.166 131.567C138.166 135.287 135.441 137.724 131.642 137.724C127.948 137.724 125.459 135.444 125.459 131.698H127.32C127.32 134.396 128.996 136.021 131.642 136.021C134.446 136.021 136.253 134.239 136.253 131.514C136.253 128.947 134.419 127.349 131.066 127.349ZM138.603 168.427H136.403V172.409H134.569V168.427H124.718V166.75L133.888 153.651H136.403V166.75H138.603V168.427ZM126.762 166.75H134.569V155.59L126.762 166.75ZM131.843 207.724C128.071 207.724 125.66 205.366 125.66 201.672H127.547C127.547 204.37 129.197 205.994 131.87 205.994C134.699 205.994 136.533 204.108 136.533 201.331C136.533 198.711 134.83 196.641 131.87 196.641C130.14 196.641 128.569 197.427 127.547 198.554L126.053 198.082L128.307 188.651H137.371V190.38H129.669L128.254 196.275C129.302 195.436 130.664 194.965 132.132 194.965C136.035 194.965 138.446 197.768 138.446 201.279C138.446 205.051 135.773 207.724 131.843 207.724ZM125.518 223.651H138.277V225.38L130.888 242.409H128.95L136.364 225.38H125.518V223.651ZM125.198 272.3C125.198 269.995 126.587 268.161 128.814 267.401C126.927 266.641 125.853 265.096 125.853 263.157C125.853 260.275 128.316 258.31 131.905 258.31C135.468 258.31 137.852 260.275 137.852 263.183C137.852 265.148 136.804 266.694 134.944 267.401C137.119 268.082 138.56 269.969 138.56 272.327C138.56 275.523 135.861 277.724 131.879 277.724C127.897 277.724 125.198 275.523 125.198 272.3ZM127.635 263.209C127.635 265.279 129.311 266.668 131.879 266.668C134.42 266.668 136.071 265.332 136.071 263.262C136.071 261.244 134.42 259.987 131.879 259.987C129.311 259.987 127.635 261.244 127.635 263.209ZM127.058 272.143C127.058 274.475 128.997 276.021 131.905 276.021C134.761 276.021 136.699 274.475 136.699 272.143C136.699 269.838 134.813 268.344 131.853 268.344C128.945 268.344 127.058 269.838 127.058 272.143ZM136.225 306.069L131.535 312.409H129.334L134.26 305.859C133.395 306.331 132.583 306.488 131.692 306.488C127.789 306.488 125.195 303.633 125.195 299.965C125.195 296.14 128.103 293.31 131.85 293.31C135.622 293.31 138.583 296.218 138.583 299.991C138.583 302.165 138.006 303.685 136.225 306.069ZM136.696 299.965C136.696 297.109 134.705 295.039 131.85 295.039C129.072 295.039 127.081 297.109 127.081 299.965C127.081 302.794 129.072 304.838 131.85 304.838C134.705 304.838 136.696 302.794 136.696 299.965Z" fill="#272727"/>
</g>
<path d="M186.953 197.303C186.953 227.703 162.308 252.348 131.908 252.348C101.508 252.348 76.8633 227.703 76.8633 197.303C76.8633 166.903 101.508 142.258 131.908 142.258C162.308 142.258 186.953 166.903 186.953 197.303ZM85.12 197.303C85.12 223.143 106.068 244.091 131.908 244.091C157.748 244.091 178.696 223.143 178.696 197.303C178.696 171.463 157.748 150.515 131.908 150.515C106.068 150.515 85.12 171.463 85.12 197.303Z" fill="#DEE1E4"/>
<path d="M131.908 146.387C131.908 144.107 133.759 142.242 136.033 142.413C148.388 143.341 160.115 148.418 169.272 156.882C179.444 166.285 185.696 179.176 186.783 192.984C187.87 206.793 183.711 220.503 175.135 231.381C166.56 242.258 154.199 249.503 140.519 251.67C126.838 253.837 112.844 250.766 101.327 243.071C89.8099 235.376 81.6176 223.621 78.3842 210.153C75.1507 196.684 77.1137 182.492 83.8817 170.407C89.975 159.527 99.5596 151.075 111.023 146.374C113.133 145.509 115.469 146.71 116.174 148.879V148.879C116.879 151.047 115.682 153.359 113.584 154.252C104.093 158.291 96.1633 165.374 91.0856 174.441C85.3329 184.714 83.6643 196.777 86.4127 208.225C89.1612 219.674 96.1246 229.665 105.914 236.206C115.703 242.747 127.599 245.357 139.227 243.515C150.856 241.673 161.362 235.515 168.651 226.269C175.94 217.023 179.475 205.369 178.552 193.632C177.628 181.895 172.313 170.937 163.668 162.946C156.037 155.891 146.306 151.606 136.031 150.697C133.76 150.496 131.908 148.667 131.908 146.387V146.387Z" fill="#0D6EDE"/>
</g>
<g clip-path="url(#clip2_3581_1763)">
<path d="M329.081 195.446C329.081 197.094 327.913 198.278 326.281 198.278C324.649 198.278 323.465 197.094 323.465 195.446C323.465 193.798 324.649 192.598 326.281 192.598C327.913 192.598 329.081 193.798 329.081 195.446ZM334.889 192.822L326.185 204.278H325.033L333.721 192.822H334.889ZM328.121 195.446C328.121 194.31 327.369 193.526 326.281 193.526C325.177 193.526 324.425 194.31 324.425 195.446C324.425 196.566 325.193 197.366 326.281 197.366C327.353 197.366 328.121 196.566 328.121 195.446ZM336.473 201.654C336.473 203.302 335.305 204.486 333.673 204.486C332.041 204.486 330.857 203.302 330.857 201.654C330.857 200.006 332.041 198.806 333.673 198.806C335.305 198.806 336.473 200.006 336.473 201.654ZM335.513 201.654C335.513 200.518 334.761 199.734 333.673 199.734C332.569 199.734 331.817 200.518 331.817 201.654C331.817 202.774 332.585 203.558 333.673 203.558C334.745 203.558 335.513 202.774 335.513 201.654Z" fill="#272727"/>
<path d="M363.632 197.303C363.632 227.703 338.988 252.348 308.588 252.348C278.187 252.348 253.543 227.703 253.543 197.303C253.543 166.903 278.187 142.258 308.588 142.258C338.988 142.258 363.632 166.903 363.632 197.303ZM261.8 197.303C261.8 223.143 282.747 244.091 308.588 244.091C334.428 244.091 355.376 223.143 355.376 197.303C355.376 171.463 334.428 150.515 308.588 150.515C282.747 150.515 261.8 171.463 261.8 197.303Z" fill="#DEE1E4"/>
<path d="M308.588 146.387C308.588 144.107 310.439 142.242 312.712 142.413C325.508 143.374 337.617 148.784 346.894 157.774C357.163 167.725 363.156 181.282 363.605 195.574C364.054 209.866 358.924 223.772 349.3 234.349C339.677 244.925 326.315 251.341 312.044 252.239C297.773 253.137 283.712 248.446 272.839 239.159C261.966 229.873 255.133 216.719 253.787 202.483C252.442 188.247 256.689 174.046 265.629 162.887C273.706 152.805 285.041 145.92 297.616 143.363C299.85 142.908 301.92 144.526 302.206 146.788V146.788C302.492 149.05 300.884 151.097 298.656 151.581C288.209 153.85 278.808 159.642 272.073 168.049C264.473 177.535 260.863 189.606 262.007 201.706C263.151 213.807 268.959 224.987 278.201 232.881C287.444 240.775 299.395 244.762 311.525 243.999C323.656 243.235 335.013 237.782 343.193 228.792C351.374 219.802 355.734 207.982 355.353 195.833C354.971 183.685 349.876 172.162 341.148 163.703C333.412 156.206 323.359 151.639 312.711 150.697C310.44 150.496 308.588 148.667 308.588 146.387V146.387Z" fill="#0D6EDE"/>
<g clip-path="url(#clip3_3581_1763)">
<path d="M296.769 -89.909H292.944V-91.6119H298.577V-72.8535H296.769V-89.909ZM299.611 -37.8535H287.245V-39.3468L293.245 -44.5866C296.703 -47.5995 297.594 -48.9094 297.594 -51.1363C297.594 -53.6776 296.074 -55.2233 293.585 -55.2233C290.991 -55.2233 289.289 -53.337 289.21 -50.429H287.324C287.428 -54.3588 289.917 -56.9525 293.611 -56.9525C297.148 -56.9525 299.506 -54.6732 299.506 -51.2411C299.506 -48.5164 298.275 -46.7087 294.528 -43.4339L290.153 -39.6088H299.611V-37.8535ZM292.515 -12.9139H291.022V-14.2238L296.812 -19.9352H287.826V-21.6119H299.196V-20.0924L293.589 -14.512C297.1 -14.3286 299.615 -12.1017 299.615 -8.69586C299.615 -4.97562 296.891 -2.53913 293.092 -2.53913C289.398 -2.53913 286.909 -4.81843 286.909 -8.56486H288.769C288.769 -5.86638 290.446 -4.24205 293.092 -4.24205C295.895 -4.24205 297.703 -6.02357 297.703 -8.74825C297.703 -11.3157 295.869 -12.9139 292.515 -12.9139ZM299.285 28.1643H297.085V32.1465H295.251V28.1643H285.4V26.4875L294.569 13.3881H297.085V26.4875H299.285V28.1643ZM287.443 26.4875H295.251V15.3268L287.443 26.4875ZM293.101 67.4609C289.328 67.4609 286.918 65.103 286.918 61.4089H288.804C288.804 64.1074 290.455 65.7317 293.127 65.7317C295.957 65.7317 297.79 63.8454 297.79 61.0684C297.79 58.4485 296.088 56.3788 293.127 56.3788C291.398 56.3788 289.826 57.1647 288.804 58.2913L287.311 57.8197L289.564 48.3881H298.629V50.1172H290.926L289.512 56.012C290.56 55.1736 291.922 54.702 293.389 54.702C297.293 54.702 299.703 57.5053 299.703 61.016C299.703 64.7886 297.031 67.4609 293.101 67.4609ZM288.555 89.702L293.244 83.3881H295.445L290.519 89.9116C291.41 89.4662 292.222 89.2829 293.087 89.2829C296.991 89.2829 299.584 92.1385 299.584 95.8064C299.584 99.6576 296.676 102.461 292.93 102.461C289.157 102.461 286.197 99.5528 286.197 95.8064C286.197 93.6319 286.799 92.1123 288.555 89.702ZM288.109 95.8326C288.109 98.6882 290.074 100.758 292.93 100.758C295.707 100.758 297.698 98.6882 297.698 95.8326C297.698 92.9769 295.707 90.9334 292.93 90.9334C290.074 90.9334 288.109 92.9769 288.109 95.8326ZM287.811 118.388H300.57V120.117L293.182 137.146H291.243L298.658 120.117H287.811V118.388ZM286.072 167.038C286.072 164.732 287.46 162.898 289.687 162.139C287.801 161.379 286.727 159.833 286.727 157.894C286.727 155.012 289.189 153.048 292.779 153.048C296.342 153.048 298.726 155.012 298.726 157.921C298.726 159.885 297.678 161.431 295.818 162.139C297.992 162.82 299.433 164.706 299.433 167.064C299.433 170.26 296.735 172.461 292.753 172.461C288.77 172.461 286.072 170.26 286.072 167.038ZM288.508 157.947C288.508 160.016 290.185 161.405 292.753 161.405C295.294 161.405 296.944 160.069 296.944 157.999C296.944 155.982 295.294 154.724 292.753 154.724C290.185 154.724 288.508 155.982 288.508 157.947ZM287.932 166.881C287.932 169.212 289.871 170.758 292.779 170.758C295.634 170.758 297.573 169.212 297.573 166.881C297.573 164.575 295.687 163.082 292.726 163.082C289.818 163.082 287.932 164.575 287.932 166.881ZM297.226 200.806L292.537 207.146H290.336L295.261 200.597C294.397 201.068 293.585 201.226 292.694 201.226C288.79 201.226 286.197 198.37 286.197 194.702C286.197 190.877 289.105 188.048 292.851 188.048C296.624 188.048 299.584 190.956 299.584 194.728C299.584 196.903 299.008 198.422 297.226 200.806ZM297.698 194.702C297.698 191.846 295.707 189.777 292.851 189.777C290.074 189.777 288.083 191.846 288.083 194.702C288.083 197.532 290.074 199.575 292.851 199.575C295.707 199.575 297.698 197.532 297.698 194.702Z" fill="#171717"/>
<path d="M301.062 -676.97C301.062 -682.786 303.917 -686.716 308.581 -686.716C313.218 -686.716 316.073 -682.786 316.073 -676.97C316.073 -671.128 313.27 -667.25 308.581 -667.25C303.865 -667.25 301.062 -671.128 301.062 -676.97ZM302.922 -676.97C302.922 -672.097 304.991 -668.953 308.581 -668.953C312.17 -668.953 314.24 -672.097 314.24 -676.97C314.24 -681.869 312.17 -684.987 308.581 -684.987C304.991 -684.987 302.922 -681.869 302.922 -676.97ZM308.929 -649.646H305.104V-651.349H310.737V-632.591H308.929V-649.646ZM314.752 -597.591H302.386V-599.084L308.385 -604.324C311.844 -607.337 312.734 -608.647 312.734 -610.874C312.734 -613.415 311.215 -614.961 308.726 -614.961C306.132 -614.961 304.429 -613.074 304.351 -610.166H302.464C302.569 -614.096 305.058 -616.69 308.752 -616.69C312.289 -616.69 314.647 -614.41 314.647 -610.978C314.647 -608.254 313.416 -606.446 309.669 -603.171L305.294 -599.346H314.752V-597.591ZM307.746 -572.651H306.252V-573.961L312.042 -579.672H303.056V-581.349H314.426V-579.83L308.82 -574.249C312.33 -574.066 314.846 -571.839 314.846 -568.433C314.846 -564.713 312.121 -562.276 308.322 -562.276C304.628 -562.276 302.139 -564.556 302.139 -568.302H303.999C303.999 -565.604 305.676 -563.979 308.322 -563.979C311.125 -563.979 312.933 -565.761 312.933 -568.486C312.933 -571.053 311.099 -572.651 307.746 -572.651ZM315.283 -531.573H313.082V-527.591H311.248V-531.573H301.398V-533.25L310.567 -546.349H313.082V-533.25H315.283V-531.573ZM303.441 -533.25H311.248V-544.41L303.441 -533.25ZM308.523 -492.276C304.75 -492.276 302.34 -494.634 302.34 -498.328H304.226C304.226 -495.63 305.877 -494.006 308.549 -494.006C311.379 -494.006 313.213 -495.892 313.213 -498.669C313.213 -501.289 311.51 -503.359 308.549 -503.359C306.82 -503.359 305.248 -502.573 304.226 -501.446L302.733 -501.918L304.986 -511.349H314.051V-509.62H306.349L304.934 -503.725C305.982 -504.564 307.344 -505.035 308.811 -505.035C312.715 -505.035 315.125 -502.232 315.125 -498.721C315.125 -494.949 312.453 -492.276 308.523 -492.276ZM302.197 -476.349H314.956V-474.62L307.568 -457.591H305.629L313.044 -474.62H302.197V-476.349ZM301.878 -427.7C301.878 -430.005 303.266 -431.839 305.493 -432.599C303.607 -433.359 302.533 -434.904 302.533 -436.843C302.533 -439.725 304.995 -441.69 308.585 -441.69C312.148 -441.69 314.532 -439.725 314.532 -436.817C314.532 -434.852 313.484 -433.306 311.624 -432.599C313.798 -431.918 315.239 -430.031 315.239 -427.673C315.239 -424.477 312.541 -422.276 308.559 -422.276C304.576 -422.276 301.878 -424.477 301.878 -427.7ZM304.314 -436.791C304.314 -434.721 305.991 -433.332 308.559 -433.332C311.1 -433.332 312.75 -434.668 312.75 -436.738C312.75 -438.756 311.1 -440.013 308.559 -440.013C305.991 -440.013 304.314 -438.756 304.314 -436.791ZM303.738 -427.857C303.738 -425.525 305.677 -423.979 308.585 -423.979C311.44 -423.979 313.379 -425.525 313.379 -427.857C313.379 -430.162 311.493 -431.656 308.532 -431.656C305.624 -431.656 303.738 -430.162 303.738 -427.857ZM312.904 -393.931L308.215 -387.591H306.014L310.94 -394.141C310.075 -393.669 309.263 -393.512 308.372 -393.512C304.468 -393.512 301.875 -396.367 301.875 -400.035C301.875 -403.86 304.783 -406.69 308.529 -406.69C312.302 -406.69 315.262 -403.782 315.262 -400.009C315.262 -397.835 314.686 -396.315 312.904 -393.931ZM313.376 -400.035C313.376 -402.891 311.385 -404.961 308.529 -404.961C305.752 -404.961 303.761 -402.891 303.761 -400.035C303.761 -397.206 305.752 -395.162 308.529 -395.162C311.385 -395.162 313.376 -397.206 313.376 -400.035ZM301.062 -361.97C301.062 -367.786 303.917 -371.716 308.581 -371.716C313.218 -371.716 316.073 -367.786 316.073 -361.97C316.073 -356.128 313.27 -352.25 308.581 -352.25C303.865 -352.25 301.062 -356.128 301.062 -361.97ZM302.922 -361.97C302.922 -357.097 304.991 -353.953 308.581 -353.953C312.17 -353.953 314.24 -357.097 314.24 -361.97C314.24 -366.869 312.17 -369.987 308.581 -369.987C304.991 -369.987 302.922 -366.869 302.922 -361.97ZM308.929 -334.646H305.104V-336.349H310.737V-317.591H308.929V-334.646ZM314.752 -282.591H302.386V-284.084L308.385 -289.324C311.844 -292.337 312.734 -293.647 312.734 -295.874C312.734 -298.415 311.215 -299.961 308.726 -299.961C306.132 -299.961 304.429 -298.074 304.351 -295.166H302.464C302.569 -299.096 305.058 -301.69 308.752 -301.69C312.289 -301.69 314.647 -299.41 314.647 -295.978C314.647 -293.254 313.416 -291.446 309.669 -288.171L305.294 -284.346H314.752V-282.591ZM307.746 -257.651H306.252V-258.961L312.042 -264.672H303.056V-266.349H314.426V-264.83L308.82 -259.249C312.33 -259.066 314.846 -256.839 314.846 -253.433C314.846 -249.713 312.121 -247.276 308.322 -247.276C304.628 -247.276 302.139 -249.556 302.139 -253.302H303.999C303.999 -250.604 305.676 -248.979 308.322 -248.979C311.125 -248.979 312.933 -250.761 312.933 -253.486C312.933 -256.053 311.099 -257.651 307.746 -257.651ZM315.283 -216.573H313.082V-212.591H311.248V-216.573H301.398V-218.25L310.567 -231.349H313.082V-218.25H315.283V-216.573ZM303.441 -218.25H311.248V-229.41L303.441 -218.25ZM308.523 -177.276C304.75 -177.276 302.34 -179.634 302.34 -183.328H304.226C304.226 -180.63 305.877 -179.006 308.549 -179.006C311.379 -179.006 313.213 -180.892 313.213 -183.669C313.213 -186.289 311.51 -188.359 308.549 -188.359C306.82 -188.359 305.248 -187.573 304.226 -186.446L302.733 -186.918L304.986 -196.349H314.051V-194.62H306.349L304.934 -188.725C305.982 -189.564 307.344 -190.035 308.811 -190.035C312.715 -190.035 315.125 -187.232 315.125 -183.721C315.125 -179.949 312.453 -177.276 308.523 -177.276ZM302.197 -161.349H314.956V-159.62L307.568 -142.591H305.629L313.044 -159.62H302.197V-161.349ZM301.878 -112.7C301.878 -115.005 303.266 -116.839 305.493 -117.599C303.607 -118.359 302.533 -119.904 302.533 -121.843C302.533 -124.725 304.995 -126.69 308.585 -126.69C312.148 -126.69 314.532 -124.725 314.532 -121.817C314.532 -119.852 313.484 -118.306 311.624 -117.599C313.798 -116.918 315.239 -115.031 315.239 -112.673C315.239 -109.477 312.541 -107.276 308.559 -107.276C304.576 -107.276 301.878 -109.477 301.878 -112.7ZM304.314 -121.791C304.314 -119.721 305.991 -118.332 308.559 -118.332C311.1 -118.332 312.75 -119.668 312.75 -121.738C312.75 -123.756 311.1 -125.013 308.559 -125.013C305.991 -125.013 304.314 -123.756 304.314 -121.791ZM303.738 -112.857C303.738 -110.525 305.677 -108.979 308.585 -108.979C311.44 -108.979 313.379 -110.525 313.379 -112.857C313.379 -115.162 311.493 -116.656 308.532 -116.656C305.624 -116.656 303.738 -115.162 303.738 -112.857ZM312.904 -78.9309L308.215 -72.5908H306.014L310.94 -79.1405C310.075 -78.669 309.263 -78.5118 308.372 -78.5118C304.468 -78.5118 301.875 -81.3674 301.875 -85.0353C301.875 -88.8603 304.783 -91.6898 308.529 -91.6898C312.302 -91.6898 315.262 -88.7817 315.262 -85.0091C315.262 -82.8346 314.686 -81.315 312.904 -78.9309ZM313.376 -85.0353C313.376 -87.8909 311.385 -89.9606 308.529 -89.9606C305.752 -89.9606 303.761 -87.8909 303.761 -85.0353C303.761 -82.2058 305.752 -80.1623 308.529 -80.1623C311.385 -80.1623 313.376 -82.2058 313.376 -85.0353ZM301.062 -46.97C301.062 -52.7861 303.917 -56.716 308.581 -56.716C313.218 -56.716 316.073 -52.7861 316.073 -46.97C316.073 -41.1277 313.27 -37.2502 308.581 -37.2502C303.865 -37.2502 301.062 -41.1277 301.062 -46.97ZM302.922 -46.97C302.922 -42.097 304.991 -38.9532 308.581 -38.9532C312.17 -38.9532 314.24 -42.097 314.24 -46.97C314.24 -51.8692 312.17 -54.9868 308.581 -54.9868C304.991 -54.9868 302.922 -51.8692 302.922 -46.97ZM308.929 -19.6463H305.104V-21.3492H310.737V-2.59082H308.929V-19.6463ZM314.752 32.4092H302.386V30.9158L308.385 25.6761C311.844 22.6632 312.734 21.3533 312.734 19.1264C312.734 16.5851 311.215 15.0394 308.726 15.0394C306.132 15.0394 304.429 16.9257 304.351 19.8337H302.464C302.569 15.9039 305.058 13.3102 308.752 13.3102C312.289 13.3102 314.647 15.5895 314.647 19.0216C314.647 21.7463 313.416 23.554 309.669 26.8288L305.294 30.6539H314.752V32.4092ZM307.746 57.3488H306.252V56.0389L312.042 50.3275H303.056V48.6508H314.426V50.1703L308.82 55.7507C312.33 55.9341 314.846 58.161 314.846 61.5668C314.846 65.2871 312.121 67.7236 308.322 67.7236C304.628 67.7236 302.139 65.4443 302.139 61.6978H303.999C303.999 64.3963 305.676 66.0206 308.322 66.0206C311.125 66.0206 312.933 64.2391 312.933 61.5144C312.933 58.947 311.099 57.3488 307.746 57.3488ZM315.283 98.427H313.082V102.409H311.248V98.427H301.398V96.7502L310.567 83.6508H313.082V96.7502H315.283V98.427ZM303.441 96.7502H311.248V85.5895L303.441 96.7502ZM308.523 137.724C304.75 137.724 302.34 135.366 302.34 131.672H304.226C304.226 134.37 305.877 135.994 308.549 135.994C311.379 135.994 313.213 134.108 313.213 131.331C313.213 128.711 311.51 126.641 308.549 126.641C306.82 126.641 305.248 127.427 304.226 128.554L302.733 128.082L304.986 118.651H314.051V120.38H306.349L304.934 126.275C305.982 125.436 307.344 124.965 308.811 124.965C312.715 124.965 315.125 127.768 315.125 131.279C315.125 135.051 312.453 137.724 308.523 137.724ZM302.197 153.651H314.956V155.38L307.568 172.409H305.629L313.044 155.38H302.197V153.651ZM301.878 202.3C301.878 199.995 303.266 198.161 305.493 197.401C303.607 196.641 302.533 195.096 302.533 193.157C302.533 190.275 304.995 188.31 308.585 188.31C312.148 188.31 314.532 190.275 314.532 193.183C314.532 195.148 313.484 196.694 311.624 197.401C313.798 198.082 315.239 199.969 315.239 202.327C315.239 205.523 312.541 207.724 308.559 207.724C304.576 207.724 301.878 205.523 301.878 202.3ZM304.314 193.209C304.314 195.279 305.991 196.668 308.559 196.668C311.1 196.668 312.75 195.332 312.75 193.262C312.75 191.244 311.1 189.987 308.559 189.987C305.991 189.987 304.314 191.244 304.314 193.209ZM303.738 202.143C303.738 204.475 305.677 206.021 308.585 206.021C311.44 206.021 313.379 204.475 313.379 202.143C313.379 199.838 311.493 198.344 308.532 198.344C305.624 198.344 303.738 199.838 303.738 202.143ZM312.904 236.069L308.215 242.409H306.014L310.94 235.859C310.075 236.331 309.263 236.488 308.372 236.488C304.468 236.488 301.875 233.633 301.875 229.965C301.875 226.14 304.783 223.31 308.529 223.31C312.302 223.31 315.262 226.218 315.262 229.991C315.262 232.165 314.686 233.685 312.904 236.069ZM313.376 229.965C313.376 227.109 311.385 225.039 308.529 225.039C305.752 225.039 303.761 227.109 303.761 229.965C303.761 232.794 305.752 234.838 308.529 234.838C311.385 234.838 313.376 232.794 313.376 229.965Z" fill="#171717"/>
</g>
</g>
<g clip-path="url(#clip4_3581_1763)">
<path d="M505.763 195.446C505.763 197.094 504.595 198.278 502.963 198.278C501.331 198.278 500.147 197.094 500.147 195.446C500.147 193.798 501.331 192.598 502.963 192.598C504.595 192.598 505.763 193.798 505.763 195.446ZM511.571 192.822L502.867 204.278H501.715L510.403 192.822H511.571ZM504.803 195.446C504.803 194.31 504.051 193.526 502.963 193.526C501.859 193.526 501.107 194.31 501.107 195.446C501.107 196.566 501.875 197.366 502.963 197.366C504.035 197.366 504.803 196.566 504.803 195.446ZM513.155 201.654C513.155 203.302 511.987 204.486 510.355 204.486C508.723 204.486 507.539 203.302 507.539 201.654C507.539 200.006 508.723 198.806 510.355 198.806C511.987 198.806 513.155 200.006 513.155 201.654ZM512.195 201.654C512.195 200.518 511.443 199.734 510.355 199.734C509.251 199.734 508.499 200.518 508.499 201.654C508.499 202.774 509.267 203.558 510.355 203.558C511.427 203.558 512.195 202.774 512.195 201.654Z" fill="#272727"/>
<path d="M540.314 197.303C540.314 227.703 515.67 252.348 485.269 252.348C454.869 252.348 430.225 227.703 430.225 197.303C430.225 166.903 454.869 142.258 485.269 142.258C515.67 142.258 540.314 166.903 540.314 197.303ZM438.481 197.303C438.481 223.143 459.429 244.091 485.269 244.091C511.11 244.091 532.057 223.143 532.057 197.303C532.057 171.463 511.11 150.515 485.269 150.515C459.429 150.515 438.481 171.463 438.481 197.303Z" fill="#DEE1E4"/>
<path d="M485.269 146.387C485.269 144.107 487.12 142.242 489.394 142.413C501.016 143.286 512.102 147.831 521.018 155.447C530.984 163.959 537.586 175.747 539.636 188.692C541.687 201.637 539.051 214.889 532.203 226.064C525.355 237.239 514.744 245.603 502.279 249.654C489.814 253.704 476.313 253.173 464.205 248.158C452.096 243.142 442.174 233.971 436.224 222.293C430.274 210.615 428.686 197.197 431.746 184.453C434.483 173.051 440.78 162.858 449.669 155.321C451.408 153.846 454.001 154.266 455.341 156.111V156.111C456.682 157.955 456.259 160.524 454.539 162.021C447.231 168.386 442.052 176.891 439.774 186.381C437.173 197.213 438.523 208.618 443.581 218.544C448.639 228.47 457.072 236.266 467.364 240.529C477.657 244.793 489.132 245.244 499.728 241.801C510.323 238.358 519.342 231.248 525.163 221.75C530.983 212.251 533.224 200.987 531.481 189.984C529.738 178.981 524.127 168.96 515.656 161.725C508.235 155.387 499.046 151.551 489.392 150.697C487.121 150.496 485.269 148.667 485.269 146.387V146.387Z" fill="#0D6EDE"/>
<g clip-path="url(#clip5_3581_1763)">
<path d="M473.451 -89.909H469.626V-91.6119H475.259V-72.8535H473.451V-89.909ZM476.293 -37.8535H463.927V-39.3468L469.926 -44.5866C473.384 -47.5995 474.275 -48.9094 474.275 -51.1363C474.275 -53.6776 472.756 -55.2233 470.267 -55.2233C467.673 -55.2233 465.97 -53.337 465.892 -50.429H464.005C464.11 -54.3588 466.599 -56.9525 470.293 -56.9525C473.83 -56.9525 476.188 -54.6732 476.188 -51.2411C476.188 -48.5164 474.956 -46.7087 471.21 -43.4339L466.835 -39.6088H476.293V-37.8535ZM469.197 -12.9139H467.704V-14.2238L473.494 -19.9352H464.507V-21.6119H475.878V-20.0924L470.271 -14.512C473.782 -14.3286 476.297 -12.1017 476.297 -8.69586C476.297 -4.97562 473.572 -2.53913 469.773 -2.53913C466.079 -2.53913 463.59 -4.81843 463.59 -8.56486H465.451C465.451 -5.86638 467.127 -4.24205 469.773 -4.24205C472.577 -4.24205 474.384 -6.02357 474.384 -8.74825C474.384 -11.3157 472.55 -12.9139 469.197 -12.9139ZM475.967 28.1643H473.766V32.1465H471.932V28.1643H462.081V26.4875L471.251 13.3881H473.766V26.4875H475.967V28.1643ZM464.125 26.4875H471.932V15.3268L464.125 26.4875ZM469.783 67.4609C466.01 67.4609 463.6 65.103 463.6 61.4089H465.486C465.486 64.1074 467.136 65.7317 469.809 65.7317C472.638 65.7317 474.472 63.8454 474.472 61.0684C474.472 58.4485 472.769 56.3788 469.809 56.3788C468.08 56.3788 466.508 57.1647 465.486 58.2913L463.993 57.8197L466.246 48.3881H475.31V50.1172H467.608L466.193 56.012C467.241 55.1736 468.604 54.702 470.071 54.702C473.974 54.702 476.385 57.5053 476.385 61.016C476.385 64.7886 473.712 67.4609 469.783 67.4609ZM465.236 89.702L469.926 83.3881H472.126L467.201 89.9116C468.092 89.4662 468.904 89.2829 469.769 89.2829C473.672 89.2829 476.266 92.1385 476.266 95.8064C476.266 99.6576 473.358 102.461 469.611 102.461C465.839 102.461 462.878 99.5528 462.878 95.8064C462.878 93.6319 463.481 92.1123 465.236 89.702ZM464.791 95.8326C464.791 98.6882 466.756 100.758 469.611 100.758C472.388 100.758 474.38 98.6882 474.38 95.8326C474.38 92.9769 472.388 90.9334 469.611 90.9334C466.756 90.9334 464.791 92.9769 464.791 95.8326ZM464.493 118.388H477.252V120.117L469.864 137.146H467.925L475.339 120.117H464.493V118.388ZM462.753 167.038C462.753 164.732 464.142 162.898 466.369 162.139C464.483 161.379 463.408 159.833 463.408 157.894C463.408 155.012 465.871 153.048 469.46 153.048C473.023 153.048 475.407 155.012 475.407 157.921C475.407 159.885 474.36 161.431 472.499 162.139C474.674 162.82 476.115 164.706 476.115 167.064C476.115 170.26 473.416 172.461 469.434 172.461C465.452 172.461 462.753 170.26 462.753 167.038ZM465.19 157.947C465.19 160.016 466.867 161.405 469.434 161.405C471.975 161.405 473.626 160.069 473.626 157.999C473.626 155.982 471.975 154.724 469.434 154.724C466.867 154.724 465.19 155.982 465.19 157.947ZM464.614 166.881C464.614 169.212 466.552 170.758 469.46 170.758C472.316 170.758 474.255 169.212 474.255 166.881C474.255 164.575 472.368 163.082 469.408 163.082C466.5 163.082 464.614 164.575 464.614 166.881ZM473.908 200.806L469.218 207.146H467.018L471.943 200.597C471.079 201.068 470.266 201.226 469.376 201.226C465.472 201.226 462.878 198.37 462.878 194.702C462.878 190.877 465.786 188.048 469.533 188.048C473.305 188.048 476.266 190.956 476.266 194.728C476.266 196.903 475.69 198.422 473.908 200.806ZM474.38 194.702C474.38 191.846 472.388 189.777 469.533 189.777C466.756 189.777 464.765 191.846 464.765 194.702C464.765 197.532 466.756 199.575 469.533 199.575C472.388 199.575 474.38 197.532 474.38 194.702ZM462.753 237.038C462.753 234.732 464.142 232.898 466.369 232.139C464.483 231.379 463.408 229.833 463.408 227.894C463.408 225.012 465.871 223.048 469.46 223.048C473.023 223.048 475.407 225.012 475.407 227.921C475.407 229.885 474.36 231.431 472.499 232.139C474.674 232.82 476.115 234.706 476.115 237.064C476.115 240.26 473.416 242.461 469.434 242.461C465.452 242.461 462.753 240.26 462.753 237.038ZM465.19 227.947C465.19 230.016 466.867 231.405 469.434 231.405C471.975 231.405 473.626 230.069 473.626 227.999C473.626 225.982 471.975 224.724 469.434 224.724C466.867 224.724 465.19 225.982 465.19 227.947ZM464.614 236.881C464.614 239.212 466.552 240.758 469.46 240.758C472.316 240.758 474.255 239.212 474.255 236.881C474.255 234.575 472.368 233.082 469.408 233.082C466.5 233.082 464.614 234.575 464.614 236.881Z" fill="#171717"/>
<path d="M477.743 -431.97C477.743 -437.786 480.599 -441.716 485.262 -441.716C489.899 -441.716 492.755 -437.786 492.755 -431.97C492.755 -426.128 489.952 -422.25 485.262 -422.25C480.546 -422.25 477.743 -426.128 477.743 -431.97ZM479.603 -431.97C479.603 -427.097 481.673 -423.953 485.262 -423.953C488.851 -423.953 490.921 -427.097 490.921 -431.97C490.921 -436.869 488.851 -439.987 485.262 -439.987C481.673 -439.987 479.603 -436.869 479.603 -431.97ZM485.611 -404.646H481.786V-406.349H487.419V-387.591H485.611V-404.646ZM491.433 -352.591H479.067V-354.084L485.067 -359.324C488.525 -362.337 489.416 -363.647 489.416 -365.874C489.416 -368.415 487.896 -369.961 485.408 -369.961C482.814 -369.961 481.111 -368.074 481.032 -365.166H479.146C479.251 -369.096 481.74 -371.69 485.434 -371.69C488.971 -371.69 491.329 -369.41 491.329 -365.978C491.329 -363.254 490.097 -361.446 486.351 -358.171L481.976 -354.346H491.433V-352.591ZM484.427 -327.651H482.934V-328.961L488.724 -334.672H479.738V-336.349H491.108V-334.83L485.501 -329.249C489.012 -329.066 491.527 -326.839 491.527 -323.433C491.527 -319.713 488.802 -317.276 485.004 -317.276C481.31 -317.276 478.821 -319.556 478.821 -323.302H480.681C480.681 -320.604 482.358 -318.979 485.004 -318.979C487.807 -318.979 489.615 -320.761 489.615 -323.486C489.615 -326.053 487.781 -327.651 484.427 -327.651ZM491.965 -286.573H489.764V-282.591H487.93V-286.573H478.079V-288.25L487.249 -301.349H489.764V-288.25H491.965V-286.573ZM480.123 -288.25H487.93V-299.41L480.123 -288.25ZM485.205 -247.276C481.432 -247.276 479.022 -249.634 479.022 -253.328H480.908C480.908 -250.63 482.559 -249.006 485.231 -249.006C488.06 -249.006 489.894 -250.892 489.894 -253.669C489.894 -256.289 488.191 -258.359 485.231 -258.359C483.502 -258.359 481.93 -257.573 480.908 -256.446L479.415 -256.918L481.668 -266.349H490.733V-264.62H483.03L481.615 -258.725C482.663 -259.564 484.026 -260.035 485.493 -260.035C489.397 -260.035 491.807 -257.232 491.807 -253.721C491.807 -249.949 489.135 -247.276 485.205 -247.276ZM478.879 -231.349H491.638V-229.62L484.25 -212.591H482.311L489.725 -229.62H478.879V-231.349ZM478.559 -182.7C478.559 -185.005 479.948 -186.839 482.175 -187.599C480.289 -188.359 479.214 -189.904 479.214 -191.843C479.214 -194.725 481.677 -196.69 485.266 -196.69C488.829 -196.69 491.213 -194.725 491.213 -191.817C491.213 -189.852 490.166 -188.306 488.305 -187.599C490.48 -186.918 491.921 -185.031 491.921 -182.673C491.921 -179.477 489.222 -177.276 485.24 -177.276C481.258 -177.276 478.559 -179.477 478.559 -182.7ZM480.996 -191.791C480.996 -189.721 482.673 -188.332 485.24 -188.332C487.781 -188.332 489.432 -189.668 489.432 -191.738C489.432 -193.756 487.781 -195.013 485.24 -195.013C482.673 -195.013 480.996 -193.756 480.996 -191.791ZM480.42 -182.857C480.42 -180.525 482.358 -178.979 485.266 -178.979C488.122 -178.979 490.061 -180.525 490.061 -182.857C490.061 -185.162 488.174 -186.656 485.214 -186.656C482.306 -186.656 480.42 -185.162 480.42 -182.857ZM489.586 -148.931L484.896 -142.591H482.696L487.621 -149.141C486.757 -148.669 485.944 -148.512 485.054 -148.512C481.15 -148.512 478.556 -151.367 478.556 -155.035C478.556 -158.86 481.464 -161.69 485.211 -161.69C488.984 -161.69 491.944 -158.782 491.944 -155.009C491.944 -152.835 491.368 -151.315 489.586 -148.931ZM490.058 -155.035C490.058 -157.891 488.067 -159.961 485.211 -159.961C482.434 -159.961 480.443 -157.891 480.443 -155.035C480.443 -152.206 482.434 -150.162 485.211 -150.162C488.067 -150.162 490.058 -152.206 490.058 -155.035ZM477.743 -116.97C477.743 -122.786 480.599 -126.716 485.262 -126.716C489.899 -126.716 492.755 -122.786 492.755 -116.97C492.755 -111.128 489.952 -107.25 485.262 -107.25C480.546 -107.25 477.743 -111.128 477.743 -116.97ZM479.603 -116.97C479.603 -112.097 481.673 -108.953 485.262 -108.953C488.851 -108.953 490.921 -112.097 490.921 -116.97C490.921 -121.869 488.851 -124.987 485.262 -124.987C481.673 -124.987 479.603 -121.869 479.603 -116.97ZM485.611 -89.6463H481.786V-91.3492H487.419V-72.5908H485.611V-89.6463ZM491.433 -37.5908H479.067V-39.0842L485.067 -44.3239C488.525 -47.3368 489.416 -48.6467 489.416 -50.8736C489.416 -53.4149 487.896 -54.9606 485.408 -54.9606C482.814 -54.9606 481.111 -53.0743 481.032 -50.1663H479.146C479.251 -54.0961 481.74 -56.6898 485.434 -56.6898C488.971 -56.6898 491.329 -54.4105 491.329 -50.9784C491.329 -48.2537 490.097 -46.446 486.351 -43.1712L481.976 -39.3461H491.433V-37.5908ZM484.427 -12.6512H482.934V-13.9611L488.724 -19.6725H479.738V-21.3492H491.108V-19.8297L485.501 -14.2493C489.012 -14.0659 491.527 -11.839 491.527 -8.43316C491.527 -4.71293 488.802 -2.27643 485.004 -2.27643C481.31 -2.27643 478.821 -4.55573 478.821 -8.30217H480.681C480.681 -5.60369 482.358 -3.97936 485.004 -3.97936C487.807 -3.97936 489.615 -5.76088 489.615 -8.48556C489.615 -11.053 487.781 -12.6512 484.427 -12.6512ZM491.965 28.427H489.764V32.4092H487.93V28.427H478.079V26.7502L487.249 13.6508H489.764V26.7502H491.965V28.427ZM480.123 26.7502H487.93V15.5895L480.123 26.7502ZM485.205 67.7236C481.432 67.7236 479.022 65.3657 479.022 61.6716H480.908C480.908 64.3701 482.559 65.9944 485.231 65.9944C488.06 65.9944 489.894 64.1081 489.894 61.331C489.894 58.7112 488.191 56.6415 485.231 56.6415C483.502 56.6415 481.93 57.4274 480.908 58.554L479.415 58.0824L481.668 48.6508H490.733V50.3799H483.03L481.615 56.2747C482.663 55.4363 484.026 54.9647 485.493 54.9647C489.397 54.9647 491.807 57.768 491.807 61.2787C491.807 65.0513 489.135 67.7236 485.205 67.7236ZM478.879 83.6508H491.638V85.3799L484.25 102.409H482.311L489.725 85.3799H478.879V83.6508ZM478.559 132.3C478.559 129.995 479.948 128.161 482.175 127.401C480.289 126.641 479.214 125.096 479.214 123.157C479.214 120.275 481.677 118.31 485.266 118.31C488.829 118.31 491.213 120.275 491.213 123.183C491.213 125.148 490.166 126.694 488.305 127.401C490.48 128.082 491.921 129.969 491.921 132.327C491.921 135.523 489.222 137.724 485.24 137.724C481.258 137.724 478.559 135.523 478.559 132.3ZM480.996 123.209C480.996 125.279 482.673 126.668 485.24 126.668C487.781 126.668 489.432 125.332 489.432 123.262C489.432 121.244 487.781 119.987 485.24 119.987C482.673 119.987 480.996 121.244 480.996 123.209ZM480.42 132.143C480.42 134.475 482.358 136.021 485.266 136.021C488.122 136.021 490.061 134.475 490.061 132.143C490.061 129.838 488.174 128.344 485.214 128.344C482.306 128.344 480.42 129.838 480.42 132.143ZM489.586 166.069L484.896 172.409H482.696L487.621 165.859C486.757 166.331 485.944 166.488 485.054 166.488C481.15 166.488 478.556 163.633 478.556 159.965C478.556 156.14 481.464 153.31 485.211 153.31C488.984 153.31 491.944 156.218 491.944 159.991C491.944 162.165 491.368 163.685 489.586 166.069ZM490.058 159.965C490.058 157.109 488.067 155.039 485.211 155.039C482.434 155.039 480.443 157.109 480.443 159.965C480.443 162.794 482.434 164.838 485.211 164.838C488.067 164.838 490.058 162.794 490.058 159.965ZM477.743 198.03C477.743 192.214 480.599 188.284 485.262 188.284C489.899 188.284 492.755 192.214 492.755 198.03C492.755 203.872 489.952 207.75 485.262 207.75C480.546 207.75 477.743 203.872 477.743 198.03ZM479.603 198.03C479.603 202.903 481.673 206.047 485.262 206.047C488.851 206.047 490.921 202.903 490.921 198.03C490.921 193.131 488.851 190.013 485.262 190.013C481.673 190.013 479.603 193.131 479.603 198.03ZM485.611 225.354H481.786V223.651H487.419V242.409H485.611V225.354ZM491.433 277.409H479.067V275.916L485.067 270.676C488.525 267.663 489.416 266.353 489.416 264.126C489.416 261.585 487.896 260.039 485.408 260.039C482.814 260.039 481.111 261.926 481.032 264.834H479.146C479.251 260.904 481.74 258.31 485.434 258.31C488.971 258.31 491.329 260.59 491.329 264.022C491.329 266.746 490.097 268.554 486.351 271.829L481.976 275.654H491.433V277.409ZM484.427 302.349H482.934V301.039L488.724 295.328H479.738V293.651H491.108V295.17L485.501 300.751C489.012 300.934 491.527 303.161 491.527 306.567C491.527 310.287 488.802 312.724 485.004 312.724C481.31 312.724 478.821 310.444 478.821 306.698H480.681C480.681 309.396 482.358 311.021 485.004 311.021C487.807 311.021 489.615 309.239 489.615 306.514C489.615 303.947 487.781 302.349 484.427 302.349ZM491.965 343.427H489.764V347.409H487.93V343.427H478.079V341.75L487.249 328.651H489.764V341.75H491.965V343.427ZM480.123 341.75H487.93V330.59L480.123 341.75ZM485.205 382.724C481.432 382.724 479.022 380.366 479.022 376.672H480.908C480.908 379.37 482.559 380.994 485.231 380.994C488.06 380.994 489.894 379.108 489.894 376.331C489.894 373.711 488.191 371.641 485.231 371.641C483.502 371.641 481.93 372.427 480.908 373.554L479.415 373.082L481.668 363.651H490.733V365.38H483.03L481.615 371.275C482.663 370.436 484.026 369.965 485.493 369.965C489.397 369.965 491.807 372.768 491.807 376.279C491.807 380.051 489.135 382.724 485.205 382.724ZM478.879 398.651H491.638V400.38L484.25 417.409H482.311L489.725 400.38H478.879V398.651ZM478.559 447.3C478.559 444.995 479.948 443.161 482.175 442.401C480.289 441.641 479.214 440.096 479.214 438.157C479.214 435.275 481.677 433.31 485.266 433.31C488.829 433.31 491.213 435.275 491.213 438.183C491.213 440.148 490.166 441.694 488.305 442.401C490.48 443.082 491.921 444.969 491.921 447.327C491.921 450.523 489.222 452.724 485.24 452.724C481.258 452.724 478.559 450.523 478.559 447.3ZM480.996 438.209C480.996 440.279 482.673 441.668 485.24 441.668C487.781 441.668 489.432 440.332 489.432 438.262C489.432 436.244 487.781 434.987 485.24 434.987C482.673 434.987 480.996 436.244 480.996 438.209ZM480.42 447.143C480.42 449.475 482.358 451.021 485.266 451.021C488.122 451.021 490.061 449.475 490.061 447.143C490.061 444.838 488.174 443.344 485.214 443.344C482.306 443.344 480.42 444.838 480.42 447.143ZM489.586 481.069L484.896 487.409H482.696L487.621 480.859C486.757 481.331 485.944 481.488 485.054 481.488C481.15 481.488 478.556 478.633 478.556 474.965C478.556 471.14 481.464 468.31 485.211 468.31C488.984 468.31 491.944 471.218 491.944 474.991C491.944 477.165 491.368 478.685 489.586 481.069ZM490.058 474.965C490.058 472.109 488.067 470.039 485.211 470.039C482.434 470.039 480.443 472.109 480.443 474.965C480.443 477.794 482.434 479.838 485.211 479.838C488.067 479.838 490.058 477.794 490.058 474.965Z" fill="#171717"/>
</g>
</g>
<defs>
<clipPath id="clip0_3581_1763">
<rect width="140" height="110" fill="white" transform="translate(60.6797 142.278)"/>
</clipPath>
<clipPath id="clip1_3581_1763">
<rect width="32.603" height="22.1235" fill="white" transform="translate(107.68 186.217)"/>
</clipPath>
<clipPath id="clip2_3581_1763">
<rect width="140" height="110" fill="white" transform="translate(237.359 142.278)"/>
</clipPath>
<clipPath id="clip3_3581_1763">
<rect width="32.603" height="22.1235" fill="white" transform="translate(284.359 186.217)"/>
</clipPath>
<clipPath id="clip4_3581_1763">
<rect width="140" height="110" fill="white" transform="translate(414.041 142.278)"/>
</clipPath>
<clipPath id="clip5_3581_1763">
<rect width="32.603" height="22.1235" fill="white" transform="translate(461.041 186.217)"/>
</clipPath>
</defs>
</svg>
